<svg width="25" height="24" viewBox="0 0 25 24" fill="none" xmlns="http://www.w3.org/2000/svg">
    <path d="M22.9959 15.8977C23.1021 16.0755 23.1309 16.2866 23.0762 16.4849C23.0215 16.6831 22.8876 16.8525 22.7039 16.9559L13.0367 22.3928C12.9149 22.463 12.7757 22.5 12.6339 22.5C12.492 22.5 12.3528 22.463 12.2311 22.3928L2.56388 16.9559C2.39692 16.845 2.27951 16.6774 2.23507 16.4867C2.19063 16.2959 2.22243 16.096 2.32413 15.9269C2.42582 15.7578 2.58993 15.6318 2.7837 15.5742C2.97747 15.5166 3.18665 15.5316 3.36948 15.6161L12.6339 20.82L21.8983 15.6161C22.0827 15.5138 22.3016 15.4859 22.5073 15.5387C22.713 15.5914 22.8886 15.7205 22.9959 15.8977ZM21.8983 10.9559L12.6339 16.1598L3.36948 10.9559C3.18665 10.8714 2.97747 10.8564 2.7837 10.914C2.58993 10.9716 2.42582 11.0975 2.32413 11.2667C2.22243 11.4358 2.19063 11.6357 2.23507 11.8264C2.27951 12.0172 2.39692 12.1848 2.56388 12.2957L12.2311 17.7326C12.3528 17.8028 12.492 17.8398 12.6339 17.8398C12.7757 17.8398 12.9149 17.8028 13.0367 17.7326L22.7039 12.2957C22.804 12.2494 22.8932 12.1836 22.9657 12.1025C23.0382 12.0213 23.0926 11.9266 23.1253 11.8243C23.158 11.7219 23.1685 11.6141 23.1559 11.5077C23.1434 11.4013 23.1081 11.2985 23.0524 11.2059C22.9967 11.1132 22.9217 11.0327 22.8322 10.9693C22.7426 10.9059 22.6404 10.8611 22.532 10.8376C22.4236 10.8141 22.3114 10.8125 22.2023 10.8329C22.0933 10.8532 21.9897 10.8951 21.8983 10.9559ZM2.16108 6.9656C2.16055 6.82953 2.19757 6.69577 2.26836 6.57804C2.33914 6.46032 2.44114 6.36287 2.56388 6.2957L12.2311 0.858785C12.3525 0.787631 12.4918 0.75 12.6339 0.75C12.7759 0.75 12.9153 0.787631 13.0367 0.858785L22.7039 6.2957C22.825 6.36423 22.9255 6.4621 22.9953 6.57961C23.0651 6.69712 23.1018 6.83019 23.1018 6.9656C23.1018 7.10102 23.0651 7.23408 22.9953 7.35159C22.9255 7.4691 22.825 7.56698 22.7039 7.63551L13.0367 13.0724C12.9149 13.1425 12.7757 13.1796 12.6339 13.1796C12.492 13.1796 12.3528 13.1425 12.2311 13.0724L2.56388 7.63551C2.44114 7.56833 2.33914 7.47088 2.26836 7.35316C2.19757 7.23544 2.16055 7.10168 2.16108 6.9656ZM4.56781 6.9656L12.6339 11.4996L20.6999 6.9656L12.6339 2.43161L4.56781 6.9656Z" fill="white"/>
</svg>
