<svg width="24" height="24" viewBox="0 0 24 24" fill="none" xmlns="http://www.w3.org/2000/svg">
    <path d="M10.8492 20.117C8.59921 20.117 6.34687 19.2873 4.59374 17.6185C0.972646 14.1685 0.832021 8.41463 4.28202 4.79354C5.95312 3.03807 8.2078 2.03963 10.6289 1.98104C13.05 1.92479 15.3516 2.81073 17.1047 4.48182C18.8601 6.15291 19.8586 8.4076 19.9172 10.8287C19.9758 13.2498 19.0875 15.5514 17.4164 17.3045C15.6398 19.1748 13.2469 20.117 10.8492 20.117ZM10.8562 2.99119C10.7906 2.99119 10.7226 2.99119 10.6547 2.99354C8.50312 3.0451 6.49921 3.93338 5.01562 5.49198C1.94999 8.7076 2.07421 13.8193 5.29218 16.8849C8.51015 19.9506 13.6219 19.8264 16.6875 16.6084C18.1734 15.0498 18.9609 13.006 18.9094 10.8545C18.8578 8.70291 17.9695 6.69901 16.4109 5.21541C14.8992 3.77635 12.9351 2.99119 10.8562 2.99119Z" fill="#171717"/>
    <path d="M20.2055 21.7567C19.7906 21.7567 19.3735 21.6044 19.05 21.295L15.5321 17.9434L15.9844 17.5825C16.2797 17.3481 16.5539 17.0974 16.8 16.8395C17.0461 16.5817 17.2828 16.2958 17.5031 15.9888L17.843 15.5177L21.361 18.8692C21.6844 19.1763 21.8672 19.5934 21.8789 20.0411C21.8906 20.4888 21.7266 20.913 21.4196 21.2364C21.0891 21.5833 20.6461 21.7567 20.2055 21.7567ZM17.0578 17.9997L19.7485 20.5638C20.0133 20.8169 20.4328 20.8052 20.686 20.5403C20.9391 20.2755 20.9274 19.8559 20.6625 19.6028L17.9719 17.0388C17.8289 17.2122 17.6836 17.3786 17.5336 17.5356C17.3813 17.695 17.2242 17.8497 17.0578 17.9997ZM6.30002 12.9325C6.07034 12.3794 5.94377 11.7841 5.92737 11.1677C5.89455 9.85282 6.37737 8.60126 7.28674 7.6497C7.31487 7.61923 7.34299 7.5911 7.37346 7.56063C8.27112 6.66298 9.46174 6.15204 10.7367 6.12157C11.4469 6.10516 12.1242 6.23876 12.7406 6.49657L13.5047 5.73251C12.6656 5.31298 11.7164 5.08563 10.7133 5.10907C9.12659 5.14657 7.65002 5.79579 6.55784 6.95126C5.4633 8.0997 4.88205 9.60673 4.91955 11.1911C4.94065 12.077 5.15393 12.9278 5.5383 13.6966L6.30002 12.9325ZM15.3985 9.14266C15.6305 9.69345 15.7664 10.2934 15.7805 10.9263C15.8461 13.6427 13.6899 15.9067 10.9735 15.9724C10.268 15.9888 9.58127 15.8575 8.94846 15.5927L8.1844 16.3567C9.04455 16.7903 10.0055 17.0083 10.9969 16.9849C12.5813 16.9474 14.0086 16.2864 15.0492 15.2458C16.1578 14.1372 16.8305 12.5927 16.7906 10.9028C16.7696 9.99579 16.5422 9.14266 16.1602 8.38095L15.3985 9.14266Z" fill="#171717"/>
    <path d="M6.73322 14.4263L11.1489 12.9685L11.2907 13.3981L6.87504 14.8559L6.73322 14.4263ZM10.099 8.46365L14.5146 7.00586L14.6565 7.4354L10.2408 8.89319L10.099 8.46365Z" fill="#171717"/>
    <path d="M11.0722 13.2424L10.4309 8.63659L10.879 8.57422L11.5202 13.18L11.0722 13.2424Z" fill="#171717"/>
    <path d="M13.8281 7.35859C13.8281 7.56869 13.9116 7.77019 14.0602 7.91875C14.2087 8.06732 14.4102 8.15078 14.6203 8.15078C14.8304 8.15078 15.0319 8.06732 15.1805 7.91875C15.329 7.77019 15.4125 7.56869 15.4125 7.35859C15.4125 7.14849 15.329 6.947 15.1805 6.79843C15.0319 6.64987 14.8304 6.56641 14.6203 6.56641C14.4102 6.56641 14.2087 6.64987 14.0602 6.79843C13.9116 6.947 13.8281 7.14849 13.8281 7.35859Z" fill="#E3F7FA"/>
    <path d="M14.6203 8.45547C14.0156 8.45547 13.5234 7.96328 13.5234 7.35859C13.5234 6.75391 14.0156 6.26172 14.6203 6.26172C15.225 6.26172 15.7172 6.75391 15.7172 7.35859C15.7172 7.96328 15.225 8.45547 14.6203 8.45547ZM14.6203 6.87344C14.3531 6.87344 14.1352 7.09141 14.1352 7.35859C14.1352 7.62578 14.3531 7.84375 14.6203 7.84375C14.8875 7.84375 15.1055 7.62578 15.1055 7.35859C15.1055 7.09141 14.8875 6.87344 14.6203 6.87344Z" fill="#171717"/>
    <path d="M9.74768 8.52852C9.74768 8.73862 9.83114 8.94011 9.97971 9.08868C10.1283 9.23724 10.3298 9.3207 10.5399 9.3207C10.75 9.3207 10.9515 9.23724 11.1 9.08868C11.2486 8.94011 11.3321 8.73862 11.3321 8.52852C11.3321 8.31841 11.2486 8.11692 11.1 7.96835C10.9515 7.81979 10.75 7.73633 10.5399 7.73633C10.3298 7.73633 10.1283 7.81979 9.97971 7.96835C9.83114 8.11692 9.74768 8.31841 9.74768 8.52852Z" fill="#E3F7FA"/>
    <path d="M10.5399 9.62539C9.93518 9.62539 9.44299 9.1332 9.44299 8.52852C9.44299 7.92383 9.93518 7.43164 10.5399 7.43164C11.1446 7.43164 11.6367 7.92383 11.6367 8.52852C11.6367 9.1332 11.1446 9.62539 10.5399 9.62539ZM10.5399 8.04336C10.2727 8.04336 10.0547 8.26133 10.0547 8.52852C10.0547 8.7957 10.2727 9.01367 10.5399 9.01367C10.8071 9.01367 11.025 8.7957 11.025 8.52852C11.025 8.25898 10.8071 8.04336 10.5399 8.04336Z" fill="#171717"/>
    <path d="M6.29529 14.7355C6.29529 14.9456 6.37875 15.1471 6.52731 15.2957C6.67588 15.4443 6.87737 15.5277 7.08748 15.5277C7.29758 15.5277 7.49907 15.4443 7.64764 15.2957C7.7962 15.1471 7.87966 14.9456 7.87966 14.7355C7.87966 14.5254 7.7962 14.3239 7.64764 14.1754C7.49907 14.0268 7.29758 13.9434 7.08748 13.9434C6.87737 13.9434 6.67588 14.0268 6.52731 14.1754C6.37875 14.3239 6.29529 14.5254 6.29529 14.7355Z" fill="#E3F7FA"/>
    <path d="M7.08748 15.8324C6.48279 15.8324 5.9906 15.3402 5.9906 14.7355C5.9906 14.1309 6.48279 13.6387 7.08748 13.6387C7.69216 13.6387 8.18435 14.1309 8.18435 14.7355C8.18435 15.3402 7.69216 15.8324 7.08748 15.8324ZM7.08748 14.2504C6.82029 14.2504 6.60232 14.4684 6.60232 14.7355C6.60232 15.0027 6.82029 15.2207 7.08748 15.2207C7.35466 15.2207 7.57263 15.0027 7.57263 14.7355C7.57263 14.4684 7.35466 14.2504 7.08748 14.2504Z" fill="#171717"/>
    <path d="M10.3336 13.1359C10.3336 13.346 10.4171 13.5475 10.5656 13.6961C10.7142 13.8447 10.9157 13.9281 11.1258 13.9281C11.3359 13.9281 11.5374 13.8447 11.686 13.6961C11.8345 13.5475 11.918 13.346 11.918 13.1359C11.918 12.9258 11.8345 12.7243 11.686 12.5758C11.5374 12.4272 11.3359 12.3438 11.1258 12.3438C10.9157 12.3438 10.7142 12.4272 10.5656 12.5758C10.4171 12.7243 10.3336 12.9258 10.3336 13.1359Z" fill="#E3F7FA"/>
    <path d="M11.1258 14.2328C10.5211 14.2328 10.0289 13.7406 10.0289 13.1359C10.0289 12.5312 10.5211 12.0391 11.1258 12.0391C11.7305 12.0391 12.2227 12.5312 12.2227 13.1359C12.2227 13.7406 11.7305 14.2328 11.1258 14.2328ZM11.1258 12.6508C10.8586 12.6508 10.6406 12.8687 10.6406 13.1359C10.6406 13.4031 10.8586 13.6211 11.1258 13.6211C11.393 13.6211 11.611 13.4031 11.611 13.1359C11.611 12.8687 11.393 12.6508 11.1258 12.6508Z" fill="#171717"/>
</svg>
