<svg width="25" height="24" viewBox="0 0 25 24" fill="none" xmlns="http://www.w3.org/2000/svg">
    <path d="M11.6851 20.1164C9.43509 20.1164 7.18274 19.2867 5.42962 17.6179C1.80852 14.1679 1.6679 8.41402 5.1179 4.79293C6.78899 3.03746 9.04368 2.03902 11.4648 1.98043C13.8859 1.92418 16.1874 2.81012 17.9406 4.48121C19.696 6.1523 20.6945 8.40699 20.7531 10.8281C20.8116 13.2492 19.9234 15.5507 18.2523 17.3039C16.4757 19.1742 14.0827 20.1164 11.6851 20.1164ZM11.6921 2.99058C11.6265 2.99058 11.5585 2.99058 11.4906 2.99293C9.33899 3.04449 7.33509 3.93277 5.85149 5.49137C2.78587 8.70699 2.91009 13.8187 6.12805 16.8843C9.34602 19.95 14.4577 19.8257 17.5234 16.6078C19.0093 15.0492 19.7968 13.0054 19.7452 10.8539C19.6937 8.7023 18.8054 6.6984 17.2468 5.2148C15.7351 3.77574 13.771 2.99058 11.6921 2.99058Z" fill="#666C80" />
    <path d="M21.0413 21.757C20.6265 21.757 20.2093 21.6046 19.8858 21.2953L16.3679 17.9437L16.8202 17.5828C17.1155 17.3484 17.3897 17.0976 17.6358 16.8398C17.8819 16.582 18.1187 16.296 18.339 15.989L18.6788 15.5179L22.1968 18.8695C22.5202 19.1765 22.703 19.5937 22.7147 20.0413C22.7265 20.489 22.5624 20.9132 22.2554 21.2367C21.9249 21.5835 21.4819 21.757 21.0413 21.757ZM17.8937 17.9999L20.5843 20.564C20.8491 20.8171 21.2687 20.8054 21.5218 20.5406C21.7749 20.2757 21.7632 19.8562 21.4983 19.6031L18.8077 17.039C18.6647 17.2124 18.5194 17.3788 18.3694 17.5359C18.2171 17.6953 18.0601 17.8499 17.8937 17.9999ZM7.13584 12.9328C6.90615 12.3796 6.77959 11.7843 6.76318 11.1679C6.73037 9.85306 7.21318 8.6015 8.12256 7.64994C8.15068 7.61947 8.17881 7.59135 8.20928 7.56088C9.10693 6.66322 10.2976 6.15228 11.5726 6.12182C12.2827 6.10541 12.9601 6.239 13.5765 6.49682L14.3405 5.73275C13.5015 5.31322 12.5522 5.08588 11.5491 5.10931C9.9624 5.14681 8.48584 5.79603 7.39365 6.9515C6.29912 8.09994 5.71787 9.60697 5.75537 11.1913C5.77646 12.0773 5.98974 12.9281 6.37412 13.6968L7.13584 12.9328ZM16.2343 9.14291C16.4663 9.69369 16.6022 10.2937 16.6163 10.9265C16.6819 13.6429 14.5257 15.907 11.8093 15.9726C11.1038 15.989 10.4171 15.8578 9.78428 15.5929L9.02021 16.357C9.88037 16.7906 10.8413 17.0085 11.8327 16.9851C13.4171 16.9476 14.8444 16.2867 15.8851 15.246C16.9937 14.1374 17.6663 12.5929 17.6265 10.9031C17.6054 9.99603 17.378 9.14291 16.996 8.38119L16.2343 9.14291Z" fill="#666C80" />
    <path d="M7.56909 14.4258L11.9847 12.968L12.1265 13.3976L7.71091 14.8554L7.56909 14.4258ZM10.9349 8.46316L15.3505 7.00537L15.4923 7.43491L11.0767 8.8927L10.9349 8.46316Z" fill="#666C80" />
    <path d="M11.9081 13.2416L11.2668 8.63573L11.7149 8.57336L12.3562 13.1792L11.9081 13.2416Z" fill="#666C80" />
    <path d="M14.6641 7.35933C14.6641 7.56943 14.7475 7.77092 14.8961 7.91949C15.0447 8.06805 15.2461 8.15151 15.4562 8.15151C15.6664 8.15151 15.8678 8.06805 16.0164 7.91949C16.165 7.77092 16.2484 7.56943 16.2484 7.35933C16.2484 7.14922 16.165 6.94773 16.0164 6.79916C15.8678 6.6506 15.6664 6.56714 15.4562 6.56714C15.2461 6.56714 15.0447 6.6506 14.8961 6.79916C14.7475 6.94773 14.6641 7.14922 14.6641 7.35933Z" fill="white" />
    <path d="M15.4562 8.4562C14.8516 8.4562 14.3594 7.96401 14.3594 7.35933C14.3594 6.75464 14.8516 6.26245 15.4562 6.26245C16.0609 6.26245 16.5531 6.75464 16.5531 7.35933C16.5531 7.96401 16.0609 8.4562 15.4562 8.4562ZM15.4562 6.87417C15.1891 6.87417 14.9711 7.09214 14.9711 7.35933C14.9711 7.62651 15.1891 7.84448 15.4562 7.84448C15.7234 7.84448 15.9414 7.62651 15.9414 7.35933C15.9414 7.09214 15.7234 6.87417 15.4562 6.87417Z" fill="#666C80" />
    <path d="M10.5835 8.52888C10.5835 8.73898 10.667 8.94048 10.8155 9.08904C10.9641 9.23761 11.1656 9.32107 11.3757 9.32107C11.5858 9.32107 11.7873 9.23761 11.9358 9.08904C12.0844 8.94048 12.1679 8.73898 12.1679 8.52888C12.1679 8.31878 12.0844 8.11728 11.9358 7.96872C11.7873 7.82016 11.5858 7.73669 11.3757 7.73669C11.1656 7.73669 10.9641 7.82016 10.8155 7.96872C10.667 8.11728 10.5835 8.31878 10.5835 8.52888Z" fill="white" />
    <path d="M11.3757 9.62576C10.771 9.62576 10.2788 9.13357 10.2788 8.52888C10.2788 7.92419 10.771 7.43201 11.3757 7.43201C11.9804 7.43201 12.4726 7.92419 12.4726 8.52888C12.4726 9.13357 11.9804 9.62576 11.3757 9.62576ZM11.3757 8.04373C11.1085 8.04373 10.8905 8.26169 10.8905 8.52888C10.8905 8.79607 11.1085 9.01404 11.3757 9.01404C11.6429 9.01404 11.8608 8.79607 11.8608 8.52888C11.8608 8.25935 11.6429 8.04373 11.3757 8.04373Z" fill="#666C80" />
    <path d="M7.13135 14.7352C7.13135 14.9453 7.21481 15.1468 7.36337 15.2953C7.51194 15.4439 7.71343 15.5274 7.92353 15.5274C8.13364 15.5274 8.33513 15.4439 8.4837 15.2953C8.63226 15.1468 8.71572 14.9453 8.71572 14.7352C8.71572 14.5251 8.63226 14.3236 8.4837 14.175C8.33513 14.0265 8.13364 13.943 7.92353 13.943C7.71343 13.943 7.51194 14.0265 7.36337 14.175C7.21481 14.3236 7.13135 14.5251 7.13135 14.7352Z" fill="white" />
    <path d="M7.92353 15.8321C7.31885 15.8321 6.82666 15.3399 6.82666 14.7352C6.82666 14.1305 7.31885 13.6383 7.92353 13.6383C8.52822 13.6383 9.02041 14.1305 9.02041 14.7352C9.02041 15.3399 8.52822 15.8321 7.92353 15.8321ZM7.92353 14.25C7.65635 14.25 7.43838 14.468 7.43838 14.7352C7.43838 15.0024 7.65635 15.2203 7.92353 15.2203C8.19072 15.2203 8.40869 15.0024 8.40869 14.7352C8.40869 14.468 8.19072 14.25 7.92353 14.25Z" fill="#666C80" />
    <path d="M11.1694 13.1367C11.1694 13.3468 11.2529 13.5483 11.4015 13.6968C11.55 13.8454 11.7515 13.9289 11.9616 13.9289C12.1717 13.9289 12.3732 13.8454 12.5218 13.6968C12.6703 13.5483 12.7538 13.3468 12.7538 13.1367C12.7538 12.9266 12.6703 12.7251 12.5218 12.5765C12.3732 12.4279 12.1717 12.3445 11.9616 12.3445C11.7515 12.3445 11.55 12.4279 11.4015 12.5765C11.2529 12.7251 11.1694 12.9266 11.1694 13.1367Z" fill="white" />
    <path d="M11.9616 14.2335C11.3569 14.2335 10.8647 13.7414 10.8647 13.1367C10.8647 12.532 11.3569 12.0398 11.9616 12.0398C12.5663 12.0398 13.0585 12.532 13.0585 13.1367C13.0585 13.7414 12.5663 14.2335 11.9616 14.2335ZM11.9616 12.6515C11.6944 12.6515 11.4765 12.8695 11.4765 13.1367C11.4765 13.4039 11.6944 13.6218 11.9616 13.6218C12.2288 13.6218 12.4468 13.4039 12.4468 13.1367C12.4468 12.8695 12.2288 12.6515 11.9616 12.6515Z" fill="#666C80" />
</svg>
