<svg width="25" height="24" viewBox="0 0 25 24" fill="none" xmlns="http://www.w3.org/2000/svg">
    <path d="M22.7539 10.9724C22.5449 10.9724 22.3434 11.0041 22.1528 11.0617L19.5405 5.33975C19.9267 4.96186 20.1674 4.43548 20.1674 3.85371C20.1674 2.70598 19.2337 1.7722 18.0857 1.7722C17.2718 1.7722 16.5672 2.24334 16.2253 2.92612L12.4576 2.31029C12.2252 1.41432 11.4124 0.75 10.4448 0.75C9.31803 0.75 8.39972 1.65053 8.36662 2.76958L4.18537 4.32414C3.8338 4.05294 3.39471 3.88982 2.91744 3.88982C1.76971 3.88982 0.835938 4.8236 0.835938 5.97133C0.835938 6.94427 1.50761 7.76103 2.41108 7.98811L3.73182 14.7023C3.26246 15.0844 2.96138 15.666 2.96138 16.317C2.96138 17.4647 3.89515 18.3985 5.04308 18.3985C5.44771 18.3985 5.82442 18.2807 6.14449 18.08L12.6098 21.4249C12.5869 21.5484 12.5734 21.6749 12.5734 21.805C12.5734 22.9527 13.5072 23.8865 14.6551 23.8865C15.8031 23.8865 16.7368 22.9527 16.7368 21.805C16.7368 21.5098 16.6739 21.2293 16.5626 20.9743L21.8751 14.9382C22.1425 15.0635 22.4399 15.1357 22.7542 15.1357C23.9022 15.1357 24.8359 14.202 24.8359 13.0542C24.8357 11.9063 23.9018 10.9723 22.754 10.9723L22.7539 10.9724ZM7.03651 15.721C6.97574 15.5179 6.88586 15.3278 6.77006 15.156L10.869 4.86913C10.9584 4.85033 11.0451 4.8242 11.1303 4.7945L12.8376 11.6982C12.3378 12.0789 12.0129 12.6781 12.0129 13.3535C12.0129 13.5105 12.0319 13.6629 12.065 13.81L7.03651 15.721ZM16.4817 5.17867L14.4474 11.3045C14.3324 11.2845 14.2148 11.272 14.0945 11.272C14.0523 11.272 14.011 11.2758 13.9694 11.2784L12.1686 3.99609C12.2681 3.84921 12.3473 3.68827 12.4071 3.51783L16.0216 4.10852C16.0711 4.51175 16.2348 4.87997 16.4816 5.17826L16.4817 5.17867ZM13.2126 13.3539C13.2126 12.8679 13.6081 12.4723 14.0945 12.4723C14.5803 12.4723 14.9758 12.8677 14.9758 13.3539C14.9758 13.8401 14.5805 14.2354 14.0945 14.2354C13.6083 14.2354 13.2126 13.8401 13.2126 13.3539ZM15.2043 19.7989L14.748 15.3285C15.3967 15.1133 15.9038 14.5871 16.0935 13.9272L20.7694 13.6809C20.8207 13.8428 20.893 13.9953 20.9801 14.1374L15.7745 20.0524C15.6005 19.941 15.4087 19.855 15.2042 19.7988L15.2043 19.7989ZM21.1426 11.7383C20.9664 11.9539 20.8338 12.2055 20.755 12.48L16.079 12.7263C15.9721 12.3892 15.7809 12.0899 15.5311 11.8508L17.5219 5.85517C17.7015 5.90585 17.8901 5.93515 18.0859 5.93515C18.2193 5.93515 18.3494 5.92129 18.4759 5.89714L21.1426 11.7383ZM18.0857 2.9722C18.5717 2.9722 18.9674 3.36752 18.9674 3.85372C18.9674 4.33993 18.5717 4.73484 18.0857 4.73484C17.6 4.73484 17.2044 4.33952 17.2044 3.85332C17.2044 3.36711 17.5999 2.9722 18.0857 2.9722ZM10.4447 1.94994C10.9307 1.94994 11.3262 2.34526 11.3262 2.83147C11.3262 3.07258 11.2286 3.29152 11.071 3.45069C11.0702 3.45108 11.0698 3.45188 11.0695 3.45267C10.9099 3.61321 10.6888 3.71298 10.4447 3.71298C9.95872 3.71298 9.56318 3.31766 9.56318 2.83145C9.56318 2.34525 9.9587 1.94993 10.4447 1.94993L10.4447 1.94994ZM2.03586 5.97105C2.03586 5.48507 2.43118 5.08953 2.91739 5.08953C3.40359 5.08953 3.79891 5.48485 3.79891 5.97105C3.79891 6.45726 3.40359 6.85258 2.91739 6.85258C2.43118 6.85258 2.03586 6.45706 2.03586 5.97105ZM3.6223 7.92708C4.42361 7.63747 4.99869 6.87117 4.99869 5.97105C4.99869 5.75053 4.96365 5.53812 4.89991 5.3384L8.68127 3.93252C8.90595 4.29063 9.23476 4.57668 9.62629 4.74492L5.78908 14.3756C5.55708 14.2861 5.30607 14.235 5.04317 14.235C4.98299 14.235 4.92361 14.2392 4.86482 14.2441L3.6223 7.92708ZM4.16135 16.3166C4.16135 15.8307 4.55687 15.4351 5.04303 15.4351C5.52919 15.4351 5.92455 15.8304 5.92455 16.3166C5.92455 16.8028 5.52923 17.1982 5.04303 17.1982C4.55683 17.1982 4.16135 16.8028 4.16135 16.3166ZM6.95096 17.1457C6.96918 17.1039 6.98462 17.0609 6.99986 17.0182L12.6676 14.8648C12.912 15.0956 13.2115 15.2675 13.5449 15.3591L14.0012 19.8296C13.6789 19.9365 13.3917 20.1198 13.1604 20.3583L6.95096 17.1457ZM14.6549 22.6857C14.1689 22.6857 13.7732 22.2903 13.7732 21.8041C13.7732 21.3179 14.1687 20.9226 14.6549 20.9226C15.141 20.9226 15.5365 21.3179 15.5365 21.8041C15.5365 22.2903 15.1408 22.6857 14.6549 22.6857ZM22.754 13.9348C22.2683 13.9348 21.8727 13.5395 21.8727 13.0532C21.8727 12.567 22.268 12.1717 22.754 12.1717C23.24 12.1717 23.6357 12.567 23.6357 13.0532C23.6357 13.5396 23.2402 13.9348 22.754 13.9348Z" fill="#666C80" />
</svg>
