<svg width="25" height="24" viewBox="0 0 25 24" fill="none" xmlns="http://www.w3.org/2000/svg">
    <path d="M22.5791 10.9724C22.37 10.9724 22.1685 11.0041 21.9779 11.0617L19.3657 5.33975C19.7519 4.96186 19.9926 4.43548 19.9926 3.85371C19.9926 2.70598 19.0588 1.7722 17.9109 1.7722C17.0969 1.7722 16.3923 2.24334 16.0505 2.92612L12.2827 2.31029C12.0504 1.41432 11.2375 0.75 10.2699 0.75C9.14316 0.75 8.22485 1.65053 8.19176 2.76958L4.01051 4.32414C3.65894 4.05294 3.21985 3.88982 2.74257 3.88982C1.59484 3.88982 0.661072 4.8236 0.661072 5.97133C0.661072 6.94427 1.33274 7.76103 2.23621 7.98811L3.55695 14.7023C3.0876 15.0844 2.78651 15.666 2.78651 16.317C2.78651 17.4647 3.72028 18.3985 4.86822 18.3985C5.27284 18.3985 5.64955 18.2807 5.96963 18.08L12.435 21.4249C12.412 21.5484 12.3986 21.6749 12.3986 21.805C12.3986 22.9527 13.3323 23.8865 14.4803 23.8865C15.6282 23.8865 16.562 22.9527 16.562 21.805C16.562 21.5098 16.499 21.2293 16.3878 20.9743L21.7002 14.9382C21.9677 15.0635 22.265 15.1357 22.5794 15.1357C23.7273 15.1357 24.6611 14.202 24.6611 13.0542C24.6609 11.9063 23.7269 10.9723 22.5792 10.9723L22.5791 10.9724ZM6.86164 15.721C6.80087 15.5179 6.71099 15.3278 6.59519 15.156L10.6941 4.86913C10.7836 4.85033 10.8703 4.8242 10.9554 4.7945L12.6627 11.6982C12.1629 12.0789 11.8381 12.6781 11.8381 13.3535C11.8381 13.5105 11.8571 13.6629 11.8901 13.81L6.86164 15.721ZM16.3068 5.17867L14.2726 11.3045C14.1576 11.2845 14.04 11.272 13.9196 11.272C13.8775 11.272 13.8361 11.2758 13.7945 11.2784L11.9937 3.99609C12.0933 3.84921 12.1725 3.68827 12.2322 3.51783L15.8467 4.10852C15.8962 4.51175 16.0599 4.87997 16.3068 5.17826L16.3068 5.17867ZM13.0377 13.3539C13.0377 12.8679 13.4333 12.4723 13.9196 12.4723C14.4054 12.4723 14.8009 12.8677 14.8009 13.3539C14.8009 13.8401 14.4056 14.2354 13.9196 14.2354C13.4334 14.2354 13.0377 13.8401 13.0377 13.3539ZM15.0294 19.7989L14.5731 15.3285C15.2218 15.1133 15.729 14.5871 15.9186 13.9272L20.5946 13.6809C20.6458 13.8428 20.7181 13.9953 20.8052 14.1374L15.5997 20.0524C15.4257 19.941 15.2338 19.855 15.0293 19.7988L15.0294 19.7989ZM20.9677 11.7383C20.7915 11.9539 20.6589 12.2055 20.5801 12.48L15.9042 12.7263C15.7973 12.3892 15.606 12.0899 15.3562 11.8508L17.3471 5.85517C17.5266 5.90585 17.7153 5.93515 17.9111 5.93515C18.0445 5.93515 18.1745 5.92129 18.301 5.89714L20.9677 11.7383ZM17.9109 2.9722C18.3969 2.9722 18.7925 3.36752 18.7925 3.85372C18.7925 4.33993 18.3968 4.73484 17.9109 4.73484C17.4251 4.73484 17.0296 4.33952 17.0296 3.85332C17.0296 3.36711 17.4251 2.9722 17.9109 2.9722ZM10.2698 1.94994C10.7558 1.94994 11.1513 2.34526 11.1513 2.83147C11.1513 3.07258 11.0537 3.29152 10.8962 3.45069C10.8954 3.45108 10.895 3.45188 10.8946 3.45267C10.735 3.61321 10.5139 3.71298 10.2698 3.71298C9.78386 3.71298 9.38832 3.31766 9.38832 2.83145C9.38832 2.34525 9.78383 1.94993 10.2698 1.94993L10.2698 1.94994ZM1.861 5.97105C1.861 5.48507 2.25632 5.08953 2.74252 5.08953C3.22873 5.08953 3.62405 5.48485 3.62405 5.97105C3.62405 6.45726 3.22873 6.85258 2.74252 6.85258C2.25632 6.85258 1.861 6.45706 1.861 5.97105ZM3.44744 7.92708C4.24874 7.63747 4.82382 6.87117 4.82382 5.97105C4.82382 5.75053 4.78878 5.53812 4.72504 5.3384L8.5064 3.93252C8.73108 4.29063 9.05989 4.57668 9.45142 4.74492L5.61422 14.3756C5.38222 14.2861 5.13121 14.235 4.86831 14.235C4.80813 14.235 4.74874 14.2392 4.68995 14.2441L3.44744 7.92708ZM3.98649 16.3166C3.98649 15.8307 4.38201 15.4351 4.86817 15.4351C5.35432 15.4351 5.74969 15.8304 5.74969 16.3166C5.74969 16.8028 5.35437 17.1982 4.86817 17.1982C4.38196 17.1982 3.98649 16.8028 3.98649 16.3166ZM6.7761 17.1457C6.79431 17.1039 6.80975 17.0609 6.82499 17.0182L12.4927 14.8648C12.7372 15.0956 13.0367 15.2675 13.37 15.3591L13.8263 19.8296C13.504 19.9365 13.2168 20.1198 12.9856 20.3583L6.7761 17.1457ZM14.48 22.6857C13.994 22.6857 13.5983 22.2903 13.5983 21.8041C13.5983 21.3179 13.9938 20.9226 14.48 20.9226C14.9662 20.9226 15.3617 21.3179 15.3617 21.8041C15.3617 22.2903 14.966 22.6857 14.48 22.6857ZM22.5792 13.9348C22.0934 13.9348 21.6979 13.5395 21.6979 13.0532C21.6979 12.567 22.0932 12.1717 22.5792 12.1717C23.0652 12.1717 23.4609 12.567 23.4609 13.0532C23.4609 13.5396 23.0653 13.9348 22.5792 13.9348Z" fill="white"/>
</svg>
