<svg width="25" height="24" viewBox="0 0 25 24" fill="none" xmlns="http://www.w3.org/2000/svg">
    <path d="M23.5789 11.5677C23.3568 11.0309 22.8808 10.9022 22.5587 10.8714V7.6C22.5587 6.3867 21.5727 5.4 20.3601 5.4H13.7644V3.871C14.0996 3.5696 14.314 3.1362 14.314 2.65C14.314 2.21239 14.1403 1.79271 13.831 1.48327C13.5218 1.17384 13.1024 1 12.6651 1C12.2277 1 11.8083 1.17384 11.4991 1.48327C11.1898 1.79271 11.0161 2.21239 11.0161 2.65C11.0161 3.1362 11.2305 3.5696 11.5658 3.871V5.4H4.96996C3.75743 5.4 2.77136 6.3867 2.77136 7.6V10.8967L2.68122 10.9033C2.40417 10.9233 2.14496 11.0475 1.9557 11.251C1.76645 11.4544 1.66118 11.722 1.66107 12V14.2C1.66107 14.4917 1.77689 14.7715 1.98305 14.9778C2.18921 15.1841 2.46882 15.3 2.76037 15.3H2.77136V20.8C2.77136 22.0133 3.75743 23 4.96996 23H20.3601C21.5727 23 22.5587 22.0133 22.5587 20.8V15.3C22.8503 15.3 23.1299 15.1841 23.3361 14.9778C23.5422 14.7715 23.658 14.4917 23.658 14.2V12.0682C23.6707 11.8975 23.6436 11.7262 23.5789 11.5677ZM4.96996 20.8V7.6H20.3601L20.3612 11.9956L20.3601 12V14.2L20.3612 14.2055L20.3623 20.8H4.96996Z" fill="white"/>
    <path d="M9.66107 14C10.7656 14 11.6611 13.1046 11.6611 12C11.6611 10.8954 10.7656 10 9.66107 10C8.5565 10 7.66107 10.8954 7.66107 12C7.66107 13.1046 8.5565 14 9.66107 14Z" fill="white"/>
    <path d="M16.6611 14C17.7656 14 18.6611 13.1046 18.6611 12C18.6611 10.8954 17.7656 10 16.6611 10C15.5565 10 14.6611 10.8954 14.6611 12C14.6611 13.1046 15.5565 14 16.6611 14Z" fill="white"/>
    <path d="M7.66107 16H17.6611V19H7.66107V16Z" fill="white"/>
</svg>
