<svg width="25" height="24" viewBox="0 0 25 24" fill="none" xmlns="http://www.w3.org/2000/svg">
    <path d="M23.7538 11.5677C23.5317 11.0309 23.0557 10.9022 22.7336 10.8714V7.6C22.7336 6.3867 21.7475 5.4 20.535 5.4H13.9392V3.871C14.2745 3.5696 14.4889 3.1362 14.4889 2.65C14.4889 2.21239 14.3151 1.79271 14.0059 1.48327C13.6967 1.17384 13.2772 1 12.8399 1C12.4026 1 11.9832 1.17384 11.6739 1.48327C11.3647 1.79271 11.191 2.21239 11.191 2.65C11.191 3.1362 11.4053 3.5696 11.7406 3.871V5.4H5.14483C3.9323 5.4 2.94623 6.3867 2.94623 7.6V10.8967L2.85609 10.9033C2.57903 10.9233 2.31982 11.0475 2.13057 11.251C1.94131 11.4544 1.83605 11.722 1.83594 12V14.2C1.83594 14.4917 1.95176 14.7715 2.15791 14.9778C2.36407 15.1841 2.64368 15.3 2.93524 15.3H2.94623V20.8C2.94623 22.0133 3.9323 23 5.14483 23H20.535C21.7475 23 22.7336 22.0133 22.7336 20.8V15.3C23.0252 15.3 23.3048 15.1841 23.5109 14.9778C23.7171 14.7715 23.8329 14.4917 23.8329 14.2V12.0682C23.8456 11.8975 23.8185 11.7262 23.7538 11.5677ZM5.14483 20.8V7.6H20.535L20.5361 11.9956L20.535 12V14.2L20.5361 14.2055L20.5372 20.8H5.14483Z" fill="#666C80" />
    <path d="M9.83594 14C10.9405 14 11.8359 13.1046 11.8359 12C11.8359 10.8954 10.9405 10 9.83594 10C8.73137 10 7.83594 10.8954 7.83594 12C7.83594 13.1046 8.73137 14 9.83594 14Z" fill="#666C80" />
    <path d="M16.8359 14C17.9405 14 18.8359 13.1046 18.8359 12C18.8359 10.8954 17.9405 10 16.8359 10C15.7314 10 14.8359 10.8954 14.8359 12C14.8359 13.1046 15.7314 14 16.8359 14Z" fill="#666C80" />
    <path d="M7.83594 16H17.8359V19H7.83594V16Z" fill="#666C80" />
</svg>
