<svg width="25" height="24" viewBox="0 0 25 24" fill="none" xmlns="http://www.w3.org/2000/svg">
    <path d="M23.1708 15.8977C23.2769 16.0755 23.3058 16.2866 23.2511 16.4849C23.1964 16.6831 23.0625 16.8525 22.8787 16.9559L13.2115 22.3928C13.0898 22.463 12.9506 22.5 12.8087 22.5C12.6669 22.5 12.5277 22.463 12.4059 22.3928L2.73874 16.9559C2.57179 16.845 2.45438 16.6774 2.40994 16.4867C2.36549 16.2959 2.3973 16.096 2.49899 15.9269C2.60069 15.7578 2.7648 15.6318 2.95857 15.5742C3.15234 15.5166 3.36151 15.5316 3.54434 15.6161L12.8087 20.82L22.0731 15.6161C22.2576 15.5138 22.4765 15.4859 22.6822 15.5387C22.8878 15.5914 23.0635 15.7205 23.1708 15.8977ZM22.0731 10.9559L12.8087 16.1598L3.54434 10.9559C3.36151 10.8714 3.15234 10.8564 2.95857 10.914C2.7648 10.9716 2.60069 11.0975 2.49899 11.2667C2.3973 11.4358 2.36549 11.6357 2.40994 11.8264C2.45438 12.0172 2.57179 12.1848 2.73874 12.2957L12.4059 17.7326C12.5277 17.8028 12.6669 17.8398 12.8087 17.8398C12.9506 17.8398 13.0898 17.8028 13.2115 17.7326L22.8787 12.2957C22.9789 12.2494 23.068 12.1836 23.1406 12.1025C23.2131 12.0213 23.2674 11.9266 23.3002 11.8243C23.3329 11.7219 23.3433 11.6141 23.3308 11.5077C23.3182 11.4013 23.283 11.2985 23.2273 11.2059C23.1716 11.1132 23.0966 11.0327 23.007 10.9693C22.9175 10.9059 22.8153 10.8611 22.7069 10.8376C22.5985 10.8141 22.4863 10.8125 22.3772 10.8329C22.2681 10.8532 22.1646 10.8951 22.0731 10.9559ZM2.33594 6.9656C2.33541 6.82953 2.37244 6.69577 2.44322 6.57804C2.51401 6.46032 2.616 6.36287 2.73874 6.2957L12.4059 0.858785C12.5273 0.787631 12.6667 0.75 12.8087 0.75C12.9508 0.75 13.0901 0.787631 13.2115 0.858785L22.8787 6.2957C22.9999 6.36423 23.1003 6.4621 23.1701 6.57961C23.2399 6.69712 23.2767 6.83019 23.2767 6.9656C23.2767 7.10102 23.2399 7.23408 23.1701 7.35159C23.1003 7.4691 22.9999 7.56698 22.8787 7.63551L13.2115 13.0724C13.0898 13.1425 12.9506 13.1796 12.8087 13.1796C12.6669 13.1796 12.5277 13.1425 12.4059 13.0724L2.73874 7.63551C2.616 7.56833 2.51401 7.47088 2.44322 7.35316C2.37244 7.23544 2.33541 7.10168 2.33594 6.9656ZM4.74267 6.9656L12.8087 11.4996L20.8748 6.9656L12.8087 2.43161L4.74267 6.9656Z" fill="#666C80" />
</svg>
