<svg width="25" height="24" viewBox="0 0 25 24" fill="none" xmlns="http://www.w3.org/2000/svg">
    <path d="M11.5103 20.117C9.26028 20.117 7.00794 19.2873 5.25481 17.6185C1.63372 14.1685 1.49309 8.41463 4.94309 4.79354C6.61419 3.03807 8.86888 2.03963 11.29 1.98104C13.7111 1.92479 16.0126 2.81073 17.7657 4.48182C19.5212 6.15291 20.5197 8.4076 20.5783 10.8287C20.6368 13.2498 19.7486 15.5514 18.0775 17.3045C16.3009 19.1748 13.9079 20.117 11.5103 20.117ZM11.5173 2.99119C11.4517 2.99119 11.3837 2.99119 11.3158 2.99354C9.16419 3.0451 7.16028 3.93338 5.67669 5.49198C2.61106 8.7076 2.73528 13.8193 5.95325 16.8849C9.17122 19.9506 14.2829 19.8264 17.3486 16.6084C18.8345 15.0498 19.622 13.006 19.5704 10.8545C19.5189 8.70291 18.6306 6.69901 17.072 5.21541C15.5603 3.77635 13.5962 2.99119 11.5173 2.99119Z" fill="white"/>
    <path d="M20.8666 21.7567C20.4517 21.7567 20.0345 21.6044 19.7111 21.295L16.1931 17.9434L16.6455 17.5825C16.9408 17.3481 17.215 17.0974 17.4611 16.8395C17.7072 16.5817 17.9439 16.2958 18.1642 15.9888L18.5041 15.5177L22.022 18.8692C22.3455 19.1763 22.5283 19.5934 22.54 20.0411C22.5517 20.4888 22.3877 20.913 22.0806 21.2364C21.7502 21.5833 21.3072 21.7567 20.8666 21.7567ZM17.7189 17.9997L20.4095 20.5638C20.6744 20.8169 21.0939 20.8052 21.347 20.5403C21.6002 20.2755 21.5884 19.8559 21.3236 19.6028L18.633 17.0388C18.49 17.2122 18.3447 17.3786 18.1947 17.5356C18.0423 17.695 17.8853 17.8497 17.7189 17.9997ZM6.96109 12.9325C6.73141 12.3794 6.60484 11.7841 6.58844 11.1677C6.55563 9.85282 7.03844 8.60126 7.94781 7.6497C7.97594 7.61923 8.00406 7.5911 8.03453 7.56063C8.93219 6.66298 10.1228 6.15204 11.3978 6.12157C12.108 6.10516 12.7853 6.23876 13.4017 6.49657L14.1658 5.73251C13.3267 5.31298 12.3775 5.08563 11.3744 5.10907C9.78766 5.14657 8.31109 5.79579 7.21891 6.95126C6.12438 8.0997 5.54313 9.60673 5.58063 11.1911C5.60172 12.077 5.815 12.9278 6.19938 13.6966L6.96109 12.9325ZM16.0595 9.14266C16.2916 9.69345 16.4275 10.2934 16.4416 10.9263C16.5072 13.6427 14.3509 15.9067 11.6345 15.9724C10.9291 15.9888 10.2423 15.8575 9.60953 15.5927L8.84547 16.3567C9.70563 16.7903 10.6666 17.0083 11.658 16.9849C13.2423 16.9474 14.6697 16.2864 15.7103 15.2458C16.8189 14.1372 17.4916 12.5927 17.4517 10.9028C17.4306 9.99579 17.2033 9.14266 16.8213 8.38095L16.0595 9.14266Z" fill="white"/>
    <path d="M7.39429 14.4263L11.8099 12.9685L11.9517 13.3981L7.53611 14.8559L7.39429 14.4263ZM10.7601 8.46365L15.1757 7.00586L15.3175 7.4354L10.9019 8.89319L10.7601 8.46365Z" fill="white"/>
    <path d="M11.7332 13.2424L11.092 8.63659L11.54 8.57422L12.1813 13.18L11.7332 13.2424Z" fill="white"/>
    <path d="M14.4892 7.35859C14.4892 7.56869 14.5727 7.77019 14.7212 7.91875C14.8698 8.06732 15.0713 8.15078 15.2814 8.15078C15.4915 8.15078 15.693 8.06732 15.8415 7.91875C15.9901 7.77019 16.0736 7.56869 16.0736 7.35859C16.0736 7.14849 15.9901 6.947 15.8415 6.79843C15.693 6.64987 15.4915 6.56641 15.2814 6.56641C15.0713 6.56641 14.8698 6.64987 14.7212 6.79843C14.5727 6.947 14.4892 7.14849 14.4892 7.35859Z" fill="white"/>
    <path d="M15.2814 8.45547C14.6767 8.45547 14.1845 7.96328 14.1845 7.35859C14.1845 6.75391 14.6767 6.26172 15.2814 6.26172C15.8861 6.26172 16.3783 6.75391 16.3783 7.35859C16.3783 7.96328 15.8861 8.45547 15.2814 8.45547ZM15.2814 6.87344C15.0142 6.87344 14.7962 7.09141 14.7962 7.35859C14.7962 7.62578 15.0142 7.84375 15.2814 7.84375C15.5486 7.84375 15.7665 7.62578 15.7665 7.35859C15.7665 7.09141 15.5486 6.87344 15.2814 6.87344Z" fill="white"/>
    <path d="M10.4088 8.52852C10.4088 8.73862 10.4922 8.94011 10.6408 9.08868C10.7893 9.23724 10.9908 9.3207 11.2009 9.3207C11.411 9.3207 11.6125 9.23724 11.7611 9.08868C11.9097 8.94011 11.9931 8.73862 11.9931 8.52852C11.9931 8.31841 11.9097 8.11692 11.7611 7.96835C11.6125 7.81979 11.411 7.73633 11.2009 7.73633C10.9908 7.73633 10.7893 7.81979 10.6408 7.96835C10.4922 8.11692 10.4088 8.31841 10.4088 8.52852Z" fill="white"/>
    <path d="M11.2009 9.62539C10.5963 9.62539 10.1041 9.1332 10.1041 8.52852C10.1041 7.92383 10.5963 7.43164 11.2009 7.43164C11.8056 7.43164 12.2978 7.92383 12.2978 8.52852C12.2978 9.1332 11.8056 9.62539 11.2009 9.62539ZM11.2009 8.04336C10.9338 8.04336 10.7158 8.26133 10.7158 8.52852C10.7158 8.7957 10.9338 9.01367 11.2009 9.01367C11.4681 9.01367 11.6861 8.7957 11.6861 8.52852C11.6861 8.25898 11.4681 8.04336 11.2009 8.04336Z" fill="white"/>
    <path d="M6.95636 14.7355C6.95636 14.9456 7.03982 15.1471 7.18839 15.2957C7.33695 15.4443 7.53845 15.5277 7.74855 15.5277C7.95865 15.5277 8.16014 15.4443 8.30871 15.2957C8.45727 15.1471 8.54074 14.9456 8.54074 14.7355C8.54074 14.5254 8.45727 14.3239 8.30871 14.1754C8.16014 14.0268 7.95865 13.9434 7.74855 13.9434C7.53845 13.9434 7.33695 14.0268 7.18839 14.1754C7.03982 14.3239 6.95636 14.5254 6.95636 14.7355Z" fill="white"/>
    <path d="M7.74855 15.8324C7.14386 15.8324 6.65167 15.3402 6.65167 14.7355C6.65167 14.1309 7.14386 13.6387 7.74855 13.6387C8.35323 13.6387 8.84542 14.1309 8.84542 14.7355C8.84542 15.3402 8.35323 15.8324 7.74855 15.8324ZM7.74855 14.2504C7.48136 14.2504 7.26339 14.4684 7.26339 14.7355C7.26339 15.0027 7.48136 15.2207 7.74855 15.2207C8.01573 15.2207 8.2337 15.0027 8.2337 14.7355C8.2337 14.4684 8.01573 14.2504 7.74855 14.2504Z" fill="white"/>
    <path d="M10.9947 13.1359C10.9947 13.346 11.0782 13.5475 11.2267 13.6961C11.3753 13.8447 11.5768 13.9281 11.7869 13.9281C11.997 13.9281 12.1985 13.8447 12.347 13.6961C12.4956 13.5475 12.5791 13.346 12.5791 13.1359C12.5791 12.9258 12.4956 12.7243 12.347 12.5758C12.1985 12.4272 11.997 12.3438 11.7869 12.3438C11.5768 12.3438 11.3753 12.4272 11.2267 12.5758C11.0782 12.7243 10.9947 12.9258 10.9947 13.1359Z" fill="white"/>
    <path d="M11.7869 14.2328C11.1822 14.2328 10.69 13.7406 10.69 13.1359C10.69 12.5312 11.1822 12.0391 11.7869 12.0391C12.3916 12.0391 12.8838 12.5312 12.8838 13.1359C12.8838 13.7406 12.3916 14.2328 11.7869 14.2328ZM11.7869 12.6508C11.5197 12.6508 11.3017 12.8687 11.3017 13.1359C11.3017 13.4031 11.5197 13.6211 11.7869 13.6211C12.0541 13.6211 12.272 13.4031 12.272 13.1359C12.272 12.8687 12.0541 12.6508 11.7869 12.6508Z" fill="white"/>
</svg>
