<svg width="22" height="22" viewBox="0 0 22 22" fill="none" xmlns="http://www.w3.org/2000/svg">
    <path d="M20 0.5H11.75C11.3523 0.500397 10.971 0.65856 10.6898 0.939778C10.4086 1.221 10.2504 1.6023 10.25 2V6.5H2C1.6023 6.5004 1.221 6.65856 0.939778 6.93978C0.65856 7.221 0.500397 7.6023 0.5 8V20C0.500397 20.3977 0.65856 20.779 0.939778 21.0602C1.221 21.3414 1.6023 21.4996 2 21.5H10.25C10.6477 21.4996 11.029 21.3414 11.3102 21.0602C11.5914 20.779 11.7496 20.3977 11.75 20V15.5H20C20.3976 15.4994 20.7788 15.3412 21.06 15.06C21.3412 14.7788 21.4994 14.3976 21.5 14V2C21.4996 1.6023 21.3414 1.221 21.0602 0.939778C20.779 0.65856 20.3977 0.500397 20 0.5ZM20 2V5H11.75V2H20ZM10.25 15.5H2V12.5H10.25V15.5ZM11.75 6.5H20L20.0007 9.5H11.75V6.5ZM10.25 8V11H2V8H10.25ZM2 20V17H10.2508V20H2ZM11.75 14V11H20.0015V14H11.75Z" fill="#171717"/>
</svg>
