<svg width="22" height="22" viewBox="0 0 22 22" fill="none" xmlns="http://www.w3.org/2000/svg">
    <path d="M19.8359 0.5H11.5859C11.1882 0.500397 10.8069 0.65856 10.5257 0.939778C10.2445 1.221 10.0863 1.6023 10.0859 2V6.5H1.83594C1.43823 6.5004 1.05693 6.65856 0.775716 6.93978C0.494497 7.221 0.336335 7.6023 0.335938 8V20C0.336335 20.3977 0.494497 20.779 0.775716 21.0602C1.05693 21.3414 1.43823 21.4996 1.83594 21.5H10.0859C10.4836 21.4996 10.8649 21.3414 11.1462 21.0602C11.4274 20.779 11.5855 20.3977 11.5859 20V15.5H19.8359C20.2336 15.4994 20.6148 15.3412 20.8959 15.06C21.1771 14.7788 21.3353 14.3976 21.3359 14V2C21.3355 1.6023 21.1774 1.221 20.8962 0.939778C20.6149 0.65856 20.2336 0.500397 19.8359 0.5ZM19.8359 2V5H11.5859V2H19.8359ZM10.0859 15.5H1.83594V12.5H10.0859V15.5ZM11.5859 6.5H19.8359L19.8367 9.5H11.5859V6.5ZM10.0859 8V11H1.83594V8H10.0859ZM1.83594 20V17H10.0867V20H1.83594ZM11.5859 14V11H19.8374V14H11.5859Z" fill="#666C80" />
</svg>
