<svg width="22" height="22" viewBox="0 0 22 22" fill="none" xmlns="http://www.w3.org/2000/svg">
    <path d="M19.6611 0.5H11.4111C11.0134 0.500397 10.6321 0.65856 10.3509 0.939778C10.0696 1.221 9.91147 1.6023 9.91107 2V6.5H1.66107C1.26337 6.5004 0.882069 6.65856 0.60085 6.93978C0.319632 7.221 0.161469 7.6023 0.161072 8V20C0.161469 20.3977 0.319632 20.779 0.60085 21.0602C0.882069 21.3414 1.26337 21.4996 1.66107 21.5H9.91107C10.3088 21.4996 10.6901 21.3414 10.9713 21.0602C11.2525 20.779 11.4107 20.3977 11.4111 20V15.5H19.6611C20.0587 15.4994 20.4399 15.3412 20.7211 15.06C21.0023 14.7788 21.1605 14.3976 21.1611 14V2C21.1607 1.6023 21.0025 1.221 20.7213 0.939778C20.4401 0.65856 20.0588 0.500397 19.6611 0.5ZM19.6611 2V5H11.4111V2H19.6611ZM9.91107 15.5H1.66107V12.5H9.91107V15.5ZM11.4111 6.5H19.6611L19.6618 9.5H11.4111V6.5ZM9.91107 8V11H1.66107V8H9.91107ZM1.66107 20V17H9.91182V20H1.66107ZM11.4111 14V11H19.6626V14H11.4111Z" fill="white"/>
</svg>
