<svg width="25" height="24" viewBox="0 0 25 24" fill="none" xmlns="http://www.w3.org/2000/svg">
    <path d="M17.6226 8.21338L13.6826 12.0867C13.2576 11.882 12.7739 11.8341 12.317 11.9515C11.8601 12.0689 11.4594 12.344 11.1857 12.7283C10.912 13.1125 10.7829 13.5811 10.8213 14.0513C10.8597 14.5215 11.0631 14.963 11.3955 15.2978C11.7279 15.6325 12.1679 15.839 12.6378 15.8807C13.1078 15.9224 13.5773 15.7967 13.9635 15.5257C14.3496 15.2548 14.6276 14.856 14.7482 14.3999C14.8688 13.9439 14.8244 13.4598 14.6226 13.0334L18.5693 9.16005L17.6226 8.21338Z" fill="#666C80" />
    <path d="M12.836 2.83338C10.7378 2.83098 8.68277 3.42907 6.91356 4.55703C5.14435 5.68499 3.73488 7.29569 2.85161 9.19891C1.96835 11.1021 1.64819 13.2184 1.92894 15.2977C2.20969 17.377 3.07963 19.3326 4.43601 20.9334L4.63601 21.1667H21.036L21.236 20.9334C22.5924 19.3326 23.4623 17.377 23.7431 15.2977C24.0238 13.2184 23.7037 11.1021 22.8204 9.19891C21.9371 7.29569 20.5277 5.68499 18.7585 4.55703C16.9893 3.42907 14.9342 2.83098 12.836 2.83338ZM20.396 19.8334H5.27601C4.0798 18.3365 3.35784 16.5165 3.20268 14.6067H5.50268V13.2734H3.20268C3.31432 11.1565 4.12299 9.13605 5.50268 7.52671L7.13601 9.16005L8.07601 8.22005L6.45601 6.58005C8.04486 5.17574 10.0537 4.33658 12.1693 4.19338V6.52671H13.5027V4.20005C15.8397 4.36953 18.0351 5.3838 19.679 7.05346C21.3229 8.72313 22.3029 10.934 22.436 13.2734H20.116V14.6067H22.4693C22.3142 16.5165 21.5922 18.3365 20.396 19.8334Z" fill="#666C80" />
</svg>
