<svg width="25" height="24" viewBox="0 0 25 24" fill="none" xmlns="http://www.w3.org/2000/svg">
    <path d="M17.4477 8.21289L13.5077 12.0862C13.0827 11.8815 12.599 11.8336 12.1421 11.951C11.6852 12.0684 11.2844 12.3435 11.0108 12.7278C10.7371 13.112 10.608 13.5807 10.6464 14.0508C10.6848 14.521 10.8882 14.9625 11.2206 15.2973C11.553 15.632 11.993 15.8385 12.4629 15.8802C12.9328 15.922 13.4024 15.7962 13.7885 15.5253C14.1747 15.2543 14.4527 14.8555 14.5733 14.3995C14.6939 13.9434 14.6494 13.4593 14.4477 13.0329L18.3944 9.15956L17.4477 8.21289Z" fill="white"/>
    <path d="M12.6611 2.83399C10.5629 2.83159 8.50784 3.42968 6.73863 4.55764C4.96942 5.6856 3.55995 7.2963 2.67669 9.19952C1.79343 11.1027 1.47326 13.219 1.75402 15.2983C2.03477 17.3776 2.90471 19.3332 4.26109 20.934L4.46109 21.1673H20.8611L21.0611 20.934C22.4175 19.3332 23.2874 17.3776 23.5682 15.2983C23.8489 13.219 23.5287 11.1027 22.6455 9.19952C21.7622 7.2963 20.3528 5.6856 18.5835 4.55764C16.8143 3.42968 14.7593 2.83159 12.6611 2.83399ZM20.2211 19.834H5.10109C3.90487 18.3371 3.18292 16.5172 3.02775 14.6073H5.32775V13.274H3.02775C3.1394 11.1571 3.94806 9.13666 5.32775 7.52733L6.96109 9.16066L7.90109 8.22066L6.28109 6.58066C7.86993 5.17635 9.87876 4.33719 11.9944 4.19399V6.52733H13.3278V4.20066C15.6647 4.37014 17.8601 5.38441 19.5041 7.05407C21.148 8.72374 22.128 10.9347 22.2611 13.274H19.9411V14.6073H22.2944C22.1393 16.5172 21.4173 18.3371 20.2211 19.834Z" fill="white"/>
</svg>
