<svg width="24" height="24" viewBox="0 0 24 24" fill="none" xmlns="http://www.w3.org/2000/svg">
    <path d="M22.9178 11.5677C22.6958 11.0309 22.2198 10.9022 21.8977 10.8714V7.6C21.8977 6.3867 20.9116 5.4 19.6991 5.4H13.1033V3.871C13.4386 3.5696 13.6529 3.1362 13.6529 2.65C13.6529 2.21239 13.4792 1.79271 13.17 1.48327C12.8607 1.17384 12.4413 1 12.004 1C11.5667 1 11.1472 1.17384 10.838 1.48327C10.5288 1.79271 10.355 2.21239 10.355 2.65C10.355 3.1362 10.5694 3.5696 10.9047 3.871V5.4H4.30889C3.09636 5.4 2.11029 6.3867 2.11029 7.6V10.8967L2.02015 10.9033C1.7431 10.9233 1.48389 11.0475 1.29463 11.251C1.10538 11.4544 1.00011 11.722 1 12V14.2C1 14.4917 1.11582 14.7715 1.32198 14.9778C1.52814 15.1841 1.80775 15.3 2.0993 15.3H2.11029V20.8C2.11029 22.0133 3.09636 23 4.30889 23H19.6991C20.9116 23 21.8977 22.0133 21.8977 20.8V15.3C22.1892 15.3 22.4688 15.1841 22.675 14.9778C22.8811 14.7715 22.997 14.4917 22.997 14.2V12.0682C23.0096 11.8975 22.9825 11.7262 22.9178 11.5677ZM4.30889 20.8V7.6H19.6991L19.7002 11.9956L19.6991 12V14.2L19.7002 14.2055L19.7013 20.8H4.30889Z" fill="#171717"/>
    <path d="M9 14C10.1046 14 11 13.1046 11 12C11 10.8954 10.1046 10 9 10C7.89543 10 7 10.8954 7 12C7 13.1046 7.89543 14 9 14Z" fill="#171717"/>
    <path d="M16 14C17.1046 14 18 13.1046 18 12C18 10.8954 17.1046 10 16 10C14.8954 10 14 10.8954 14 12C14 13.1046 14.8954 14 16 14Z" fill="#171717"/>
    <path d="M7 16H17V19H7V16Z" fill="#171717"/>
</svg>
