<svg width="24" height="23" viewBox="0 0 24 23" fill="none" xmlns="http://www.w3.org/2000/svg">
    <path d="M4.55 16.7906V20.9035L8.8 19.8874L12 22.9841L15.2 19.8874L19.45 20.9035V16.7906L23.75 15.7261L21.6 11.6132L23.75 7.50025L19.45 6.43574V2.32283L15.2 3.33896L12 0.242188L8.8 3.33896L4.55 2.32283V6.43574L0.25 7.50025L2.4 11.6132L0.25 15.7261L4.55 16.7906ZM4.3 10.6938L3.35 8.8067L5.05 8.41961C5.55 8.32283 5.94167 8.08896 6.225 7.71799C6.50833 7.34703 6.65 6.91961 6.65 6.43574V4.98412L8.25 5.41961H8.8C9.36667 5.41961 9.86667 5.20993 10.3 4.79058L12 3.14541L13.7 4.79058C14.1333 5.20993 14.6333 5.41961 15.2 5.41961C15.4 5.41961 15.5833 5.38735 15.75 5.32283L17.35 4.98412V6.43574C17.35 6.91961 17.4917 7.34703 17.775 7.71799C18.0583 8.08896 18.45 8.32283 18.95 8.41961L20.65 8.8067L19.7 10.6938C19.3667 11.3067 19.3667 11.9196 19.7 12.5325L20.65 14.4196L18.95 14.8067C18.45 14.9035 18.0583 15.1373 17.775 15.5083C17.4917 15.8793 17.35 16.3067 17.35 16.7906V18.2422L15.75 17.8067H15.2C14.6333 17.8067 14.1333 18.0164 13.7 18.4357L12 20.0809L10.3 18.4357C9.86667 18.0164 9.36667 17.8067 8.8 17.8067C8.6 17.8067 8.41667 17.839 8.25 17.9035L6.65 18.2422V16.7906C6.65 16.3067 6.50833 15.8793 6.225 15.5083C5.94167 15.1373 5.55 14.9035 5.05 14.8067L3.35 14.4196L4.3 12.5325C4.63333 11.9196 4.63333 11.3067 4.3 10.6938ZM10.95 15.1454L15.95 10.2583C16.4167 9.8067 16.4167 9.32283 15.95 8.8067C15.45 8.38735 14.95 8.38735 14.45 8.8067L10.95 12.2422L9.55 10.8873C9.05 10.468 8.55 10.468 8.05 10.8873C7.61667 11.3712 7.61667 11.8551 8.05 12.339L10.95 15.1454Z" fill="#171717"/>
</svg>
