<svg width="25" height="24" viewBox="0 0 25 24" fill="none" xmlns="http://www.w3.org/2000/svg">
    <g clip-path="url(#clip0_5990_12849)">
        <path d="M5.21107 16.7906V20.9035L9.46107 19.8874L12.6611 22.9841L15.8611 19.8874L20.1111 20.9035V16.7906L24.4111 15.7261L22.2611 11.6132L24.4111 7.50025L20.1111 6.43574V2.32283L15.8611 3.33896L12.6611 0.242188L9.46107 3.33896L5.21107 2.32283V6.43574L0.911072 7.50025L3.06107 11.6132L0.911072 15.7261L5.21107 16.7906ZM4.96107 10.6938L4.01107 8.8067L5.71107 8.41961C6.21107 8.32283 6.60274 8.08896 6.88607 7.71799C7.1694 7.34703 7.31107 6.91961 7.31107 6.43574V4.98412L8.91107 5.41961H9.46107C10.0277 5.41961 10.5277 5.20993 10.9611 4.79058L12.6611 3.14541L14.3611 4.79058C14.7944 5.20993 15.2944 5.41961 15.8611 5.41961C16.0611 5.41961 16.2444 5.38735 16.4111 5.32283L18.0111 4.98412V6.43574C18.0111 6.91961 18.1527 7.34703 18.4361 7.71799C18.7194 8.08896 19.1111 8.32283 19.6111 8.41961L21.3111 8.8067L20.3611 10.6938C20.0277 11.3067 20.0277 11.9196 20.3611 12.5325L21.3111 14.4196L19.6111 14.8067C19.1111 14.9035 18.7194 15.1373 18.4361 15.5083C18.1527 15.8793 18.0111 16.3067 18.0111 16.7906V18.2422L16.4111 17.8067H15.8611C15.2944 17.8067 14.7944 18.0164 14.3611 18.4357L12.6611 20.0809L10.9611 18.4357C10.5277 18.0164 10.0277 17.8067 9.46107 17.8067C9.26107 17.8067 9.07774 17.839 8.91107 17.9035L7.31107 18.2422V16.7906C7.31107 16.3067 7.1694 15.8793 6.88607 15.5083C6.60274 15.1373 6.21107 14.9035 5.71107 14.8067L4.01107 14.4196L4.96107 12.5325C5.2944 11.9196 5.2944 11.3067 4.96107 10.6938ZM11.6111 15.1454L16.6111 10.2583C17.0777 9.8067 17.0777 9.32283 16.6111 8.8067C16.1111 8.38735 15.6111 8.38735 15.1111 8.8067L11.6111 12.2422L10.2111 10.8873C9.71107 10.468 9.21107 10.468 8.71107 10.8873C8.27774 11.3712 8.27774 11.8551 8.71107 12.339L11.6111 15.1454Z" fill="white"/>
    </g>
    <defs>
        <clipPath id="clip0_5990_12849">
            <rect width="24" height="24" fill="white" transform="translate(0.661072)"/>
        </clipPath>
    </defs>
</svg>
