<svg width="24" height="23" viewBox="0 0 24 23" fill="none" xmlns="http://www.w3.org/2000/svg">
    <path d="M4.38594 16.7903V20.9032L8.63594 19.8871L11.8359 22.9839L15.0359 19.8871L19.2859 20.9032V16.7903L23.5859 15.7258L21.4359 11.6129L23.5859 7.50001L19.2859 6.43549V2.32259L15.0359 3.33872L11.8359 0.241943L8.63594 3.33872L4.38594 2.32259V6.43549L0.0859375 7.50001L2.23594 11.6129L0.0859375 15.7258L4.38594 16.7903ZM4.13594 10.6936L3.18594 8.80646L4.88594 8.41936C5.38594 8.32259 5.7776 8.08872 6.06094 7.71775C6.34427 7.34678 6.48594 6.91936 6.48594 6.43549V4.98388L8.08594 5.41936H8.63594C9.2026 5.41936 9.7026 5.20969 10.1359 4.79033L11.8359 3.14517L13.5359 4.79033C13.9693 5.20969 14.4693 5.41936 15.0359 5.41936C15.2359 5.41936 15.4193 5.3871 15.5859 5.32259L17.1859 4.98388V6.43549C17.1859 6.91936 17.3276 7.34678 17.6109 7.71775C17.8943 8.08872 18.2859 8.32259 18.7859 8.41936L20.4859 8.80646L19.5359 10.6936C19.2026 11.3065 19.2026 11.9194 19.5359 12.5323L20.4859 14.4194L18.7859 14.8065C18.2859 14.9032 17.8943 15.1371 17.6109 15.5081C17.3276 15.879 17.1859 16.3065 17.1859 16.7903V18.2419L15.5859 17.8065H15.0359C14.4693 17.8065 13.9693 18.0161 13.5359 18.4355L11.8359 20.0807L10.1359 18.4355C9.7026 18.0161 9.2026 17.8065 8.63594 17.8065C8.43594 17.8065 8.2526 17.8387 8.08594 17.9032L6.48594 18.2419V16.7903C6.48594 16.3065 6.34427 15.879 6.06094 15.5081C5.7776 15.1371 5.38594 14.9032 4.88594 14.8065L3.18594 14.4194L4.13594 12.5323C4.46927 11.9194 4.46927 11.3065 4.13594 10.6936ZM10.7859 15.1452L15.7859 10.2581C16.2526 9.80646 16.2526 9.32259 15.7859 8.80646C15.2859 8.38711 14.7859 8.38711 14.2859 8.80646L10.7859 12.2419L9.38594 10.8871C8.88594 10.4678 8.38594 10.4678 7.88594 10.8871C7.4526 11.371 7.4526 11.8548 7.88594 12.3387L10.7859 15.1452Z" fill="#666C80" />
</svg>
