<svg width="25" height="22" viewBox="0 0 25 22" fill="none" xmlns="http://www.w3.org/2000/svg">
    <path fill-rule="evenodd" clip-rule="evenodd" d="M2.91107 1.625C2.91107 1.32663 2.79255 1.04048 2.58157 0.829505C2.37059 0.618526 2.08444 0.5 1.78607 0.5C1.4877 0.5 1.20156 0.618526 0.990577 0.829505C0.779598 1.04048 0.661072 1.32663 0.661072 1.625V20.375C0.661072 20.996 1.16507 21.5 1.78607 21.5H23.5361C23.8344 21.5 24.1206 21.3815 24.3316 21.1705C24.5425 20.9595 24.6611 20.6734 24.6611 20.375C24.6611 20.0766 24.5425 19.7905 24.3316 19.5795C24.1206 19.3685 23.8344 19.25 23.5361 19.25H2.91107V1.625Z" fill="white"/>
    <path d="M9.02359 10.6766L13.3638 15.1726L19.5562 8.75785L22.0443 11.3352V4.59112H15.5339L18.022 7.16849L13.3638 11.9939L9.02359 7.49783L3.66107 11.9939C3.66107 12.5 4.80406 13.5833 5.19534 13.5833L9.02359 10.6766Z" fill="white"/>
</svg>
