<svg width="24" height="22" viewBox="0 0 24 22" fill="none" xmlns="http://www.w3.org/2000/svg">
    <path fill-rule="evenodd" clip-rule="evenodd" d="M2.25 1.625C2.25 1.32663 2.13147 1.04048 1.9205 0.829505C1.70952 0.618526 1.42337 0.5 1.125 0.5C0.826631 0.5 0.540483 0.618526 0.329505 0.829505C0.118526 1.04048 0 1.32663 0 1.625V20.375C0 20.996 0.504 21.5 1.125 21.5H22.875C23.1734 21.5 23.4595 21.3815 23.6705 21.1705C23.8815 20.9595 24 20.6734 24 20.375C24 20.0766 23.8815 19.7905 23.6705 19.5795C23.4595 19.3685 23.1734 19.25 22.875 19.25H2.25V1.625Z" fill="#171717"/>
    <path d="M8.36252 10.6766L12.7027 15.1726L18.8952 8.75785L21.3832 11.3352V4.59112H14.8729L17.3609 7.16849L12.7027 11.9939L8.36252 7.49783L3 11.9939C3 12.5 4.14299 13.5833 4.53427 13.5833L8.36252 10.6766Z" fill="#171717"/>
</svg>
