<svg width="25" height="22" viewBox="0 0 25 22" fill="none" xmlns="http://www.w3.org/2000/svg">
    <path fill-rule="evenodd" clip-rule="evenodd" d="M3.08594 1.625C3.08594 1.32663 2.96741 1.04048 2.75643 0.829505C2.54545 0.618526 2.25931 0.5 1.96094 0.5C1.66257 0.5 1.37642 0.618526 1.16544 0.829505C0.954464 1.04048 0.835938 1.32663 0.835938 1.625V20.375C0.835938 20.996 1.33994 21.5 1.96094 21.5H23.7109C24.0093 21.5 24.2955 21.3815 24.5064 21.1705C24.7174 20.9595 24.8359 20.6734 24.8359 20.375C24.8359 20.0766 24.7174 19.7905 24.5064 19.5795C24.2955 19.3685 24.0093 19.25 23.7109 19.25H3.08594V1.625Z" fill="#666C80" />
    <path d="M9.19846 10.6766L13.5387 15.1726L19.7311 8.75785L22.2191 11.3352V4.59112H15.7088L18.1968 7.16849L13.5387 11.9939L9.19846 7.49783L3.83594 11.9939C3.83594 12.5 4.97892 13.5833 5.37021 13.5833L9.19846 10.6766Z" fill="#666C80" />
</svg>
