<svg width="24" height="24" viewBox="0 0 24 24" fill="none" xmlns="http://www.w3.org/2000/svg">
    <path d="M20.1637 4.83943C20.1637 4.87787 20.1612 4.91653 20.1564 4.95253C20.1659 4.88744 20.1732 4.82498 20.1828 4.75989C20.1708 4.84411 20.149 4.92364 20.1153 5.00074C20.1393 4.94297 20.1635 4.8852 20.1875 4.82743C20.161 4.88764 20.1322 4.94541 20.0959 5.00074C20.0791 5.02719 20.0597 5.0514 20.0431 5.07784C19.9877 5.15982 20.1755 4.91653 20.1082 4.99362C20.0986 5.00563 20.0864 5.02007 20.0768 5.03207C20.0286 5.0874 19.9782 5.1405 19.9251 5.18871C19.8962 5.21516 19.8649 5.24404 19.8335 5.26825C19.8191 5.28025 19.8046 5.29225 19.7902 5.30446C19.7082 5.37423 19.9515 5.18403 19.8624 5.24913C19.5398 5.48266 19.1905 5.66574 18.8219 5.81994C18.8797 5.79594 18.9375 5.77173 18.9952 5.74773C17.8656 6.21988 16.6446 6.46295 15.4379 6.62673C15.503 6.61717 15.5655 6.60985 15.6306 6.60029C13.8508 6.83626 12.0395 6.87735 10.2479 6.74716C9.76373 6.71095 9.28201 6.66294 8.8003 6.60029C8.86539 6.60985 8.92784 6.61717 8.99294 6.62673C7.78621 6.46297 6.56282 6.21968 5.43562 5.74773C5.49339 5.77173 5.55117 5.79594 5.60893 5.81994C5.24277 5.6633 4.89371 5.48042 4.56844 5.24913C4.48646 5.19135 4.71063 5.36223 4.65042 5.31178C4.63597 5.29978 4.62153 5.28777 4.60709 5.27557C4.57576 5.24912 4.54443 5.22268 4.51555 5.19603C4.46266 5.14538 4.40956 5.09493 4.36135 5.03939C4.34935 5.02495 4.33491 5.00807 4.3229 4.99362C4.26269 4.92385 4.43601 5.15026 4.39512 5.08761C4.37579 5.05872 4.35423 5.03227 4.33735 5.00339C4.30358 4.94806 4.27225 4.89028 4.2458 4.83007C4.26981 4.88785 4.29402 4.94562 4.31802 5.00339C4.28669 4.92629 4.26269 4.84675 4.25048 4.76253C4.26004 4.82763 4.26737 4.89008 4.27693 4.95518C4.26737 4.87564 4.26737 4.7963 4.27937 4.71676C4.26981 4.78186 4.26248 4.84431 4.25292 4.90941C4.26737 4.82519 4.28913 4.74565 4.32269 4.66611C4.29869 4.72388 4.27448 4.78165 4.25048 4.83942C4.27937 4.77433 4.31558 4.70943 4.35402 4.64922C4.44069 4.51923 4.27692 4.73588 4.31781 4.69011C4.34182 4.66367 4.36359 4.63722 4.38535 4.61057C4.44313 4.54792 4.50578 4.4877 4.57088 4.43237C4.59732 4.41061 4.62377 4.38904 4.65041 4.36728C4.4771 4.52615 4.59753 4.40817 4.64797 4.37216C4.9466 4.16019 5.27654 3.99887 5.61384 3.85668C5.55607 3.88068 5.4983 3.90489 5.44053 3.9289C6.56284 3.45919 7.77909 3.21607 8.98093 3.05458C8.91583 3.06414 8.85338 3.07146 8.78828 3.08102C10.5754 2.84261 12.3914 2.80172 14.1881 2.93171C14.6747 2.96792 15.1587 3.01593 15.6404 3.08102C15.5753 3.07146 15.5129 3.06414 15.4478 3.05458C16.6496 3.21589 17.8659 3.45919 18.9882 3.9289C18.9304 3.90489 18.8726 3.88068 18.8148 3.85668C19.1521 3.99888 19.4821 4.16263 19.7807 4.37216C19.8265 4.40593 19.9614 4.52392 19.7783 4.36728C19.8047 4.38904 19.8312 4.41061 19.8578 4.43237C19.9229 4.4877 19.9854 4.54792 20.0433 4.61057C20.0627 4.63234 20.0818 4.65635 20.1035 4.67811C20.1807 4.76721 19.9831 4.50947 20.0771 4.64679C20.118 4.707 20.1518 4.76966 20.1806 4.83699C20.1566 4.77921 20.1324 4.72144 20.1084 4.66367C20.1422 4.74321 20.1638 4.82255 20.1782 4.90697C20.1686 4.84187 20.1613 4.77942 20.1518 4.71432C20.1615 4.75745 20.164 4.79854 20.164 4.83943C20.1688 5.2176 20.4915 5.57887 20.8865 5.562C21.2743 5.54511 21.614 5.24404 21.6091 4.83943C21.5971 4.05421 21.0407 3.46897 20.4217 3.05965C19.8822 2.70569 19.2585 2.46238 18.6466 2.26485C17.3003 1.83135 15.8769 1.62425 14.4703 1.5063C12.8567 1.37143 11.2285 1.38099 9.61719 1.53762C8.24429 1.67249 6.85466 1.88935 5.5493 2.3444C4.32815 2.77078 2.61571 3.58243 2.85656 5.14536C2.9241 5.5813 3.22029 5.98593 3.55023 6.26767C4.00549 6.66028 4.52808 6.92269 5.08202 7.15402C6.4356 7.71525 7.91677 7.95611 9.36431 8.11255C10.9852 8.2883 12.6279 8.31007 14.2534 8.1872C15.7757 8.0741 17.3266 7.85725 18.7766 7.3684C19.3378 7.18063 19.9062 6.95178 20.4048 6.62896C20.8023 6.37122 21.214 6.03413 21.4212 5.59575C21.5367 5.35245 21.6089 5.10915 21.6114 4.8372C21.6138 4.45903 21.2765 4.09776 20.8888 4.11463C20.4915 4.13619 20.1687 4.43482 20.164 4.83944L20.1637 4.83943Z" fill="#171717"/>
    <path d="M20.1636 4.83956V6.57846V9.26146C20.1636 9.47099 20.1829 9.69252 20.1562 9.90206C20.1658 9.83696 20.1731 9.77451 20.1827 9.70942C20.1707 9.79363 20.1489 9.87317 20.1151 9.95027C20.1391 9.8925 20.1634 9.83472 20.1874 9.77695C20.1609 9.83717 20.132 9.89494 20.0958 9.95027C20.0789 9.97672 20.0596 10.0009 20.0429 10.0274C19.9876 10.1094 20.1754 9.86605 20.108 9.94315C20.0985 9.95516 20.0863 9.9696 20.0767 9.9816C20.0285 10.0369 19.978 10.09 19.9249 10.1382C19.896 10.1647 19.8647 10.1936 19.8334 10.2178C19.819 10.2298 19.8045 10.2418 19.7901 10.254C19.7081 10.3238 19.9514 10.1336 19.8623 10.1987C19.5396 10.4322 19.1904 10.6153 18.8218 10.7695C18.8796 10.7455 18.9373 10.7213 18.9951 10.6973C17.8655 11.1694 16.6445 11.4125 15.4378 11.5763C15.5029 11.5667 15.5653 11.5594 15.6304 11.5498C13.8506 11.7858 12.0394 11.8269 10.2478 11.6967C9.7636 11.6605 9.28188 11.6125 8.80017 11.5498C8.86527 11.5594 8.92772 11.5667 8.99281 11.5763C7.78609 11.4125 6.5627 11.1692 5.43549 10.6973C5.49326 10.7213 5.55104 10.7455 5.60881 10.7695C5.24264 10.6153 4.89358 10.43 4.56831 10.1987C4.48633 10.1409 4.71051 10.3118 4.65029 10.2613C4.63585 10.2493 4.6214 10.2373 4.60696 10.2251C4.57563 10.1987 4.54431 10.1722 4.51542 10.1456C4.46253 10.0949 4.40943 10.0445 4.36122 9.98892C4.34922 9.97448 4.33478 9.95759 4.32278 9.94315C4.26257 9.87338 4.43588 10.0998 4.39499 10.0371C4.37567 10.0082 4.3541 9.9818 4.33722 9.95292C4.30345 9.89758 4.27212 9.83981 4.24568 9.7796C4.26968 9.83737 4.29389 9.89515 4.31789 9.95292C4.28657 9.87582 4.26256 9.79628 4.25035 9.71206C4.25991 9.77716 4.26724 9.83961 4.2768 9.9047C4.25503 9.73139 4.26948 9.55074 4.26948 9.37722V8.21158V5.48285V4.8447H2.82434C2.8339 5.95743 3.91061 6.65823 4.82097 7.05084C6.2661 7.67456 7.8268 7.95406 9.3826 8.12268C11.0612 8.30333 12.7642 8.32021 14.4477 8.18046C15.9964 8.05291 17.5835 7.82405 19.0478 7.27968C19.5921 7.07728 20.1436 6.8413 20.6109 6.48978C21.03 6.17427 21.425 5.77695 21.555 5.24951C21.5863 5.11953 21.6057 4.98221 21.6079 4.84734C21.6103 4.46917 21.2731 4.1079 20.8853 4.12477C20.4913 4.13637 20.1684 4.435 20.1638 4.83963C20.1638 4.87808 20.1614 4.91673 20.1565 4.95274C20.166 4.88764 20.1734 4.82519 20.1829 4.7601C20.1709 4.84431 20.1492 4.92385 20.1154 5.00095C20.1394 4.94318 20.1636 4.8854 20.1876 4.82763C20.1612 4.88785 20.1323 4.94562 20.0961 5.00095C20.0792 5.0274 20.0599 5.0516 20.0432 5.07805C19.9878 5.16003 20.1756 4.91673 20.1083 4.99383C20.0987 5.00583 20.0865 5.02028 20.0769 5.03228C20.0287 5.08761 19.9783 5.1407 19.9252 5.18892C19.8963 5.21536 19.865 5.24425 19.8336 5.26845C19.8192 5.28046 19.8048 5.29246 19.7903 5.30466C19.7083 5.37444 19.9516 5.18424 19.8625 5.24933C19.5399 5.48287 19.1906 5.66595 18.822 5.82015C18.8798 5.79614 18.9376 5.77194 18.9953 5.74793C17.8657 6.22008 16.6448 6.46316 15.438 6.62694C15.5031 6.61738 15.5656 6.61005 15.6307 6.60049C13.8509 6.83646 12.0396 6.87756 10.248 6.74737C9.76384 6.71116 9.28212 6.66315 8.80041 6.60049C8.86551 6.61005 8.92796 6.61738 8.99306 6.62694C7.78633 6.46318 6.56294 6.21988 5.43573 5.74793C5.49351 5.77194 5.55128 5.79614 5.60905 5.82015C5.24289 5.66351 4.89383 5.48063 4.56855 5.24933C4.48657 5.19156 4.71075 5.36244 4.65053 5.31199C4.63609 5.29998 4.62165 5.28798 4.6072 5.27578C4.57588 5.24933 4.54455 5.22289 4.51566 5.19624C4.46277 5.14559 4.40968 5.09514 4.36147 5.0396C4.34947 5.02516 4.33502 5.00827 4.32302 4.99383C4.26281 4.92406 4.43613 5.15047 4.39524 5.08781C4.37591 5.05893 4.35435 5.03248 4.33746 5.0036C4.30369 4.94826 4.27236 4.89049 4.24592 4.83028C4.26992 4.88805 4.29413 4.94583 4.31814 5.0036C4.28681 4.9265 4.2628 4.84696 4.2506 4.76274C4.26016 4.82784 4.26748 4.89029 4.27704 4.95538C4.27216 4.91694 4.26972 4.87828 4.26972 4.84228C4.26728 4.46411 3.93976 4.10284 3.54715 4.11971C3.15454 4.13659 2.82458 4.43767 2.82458 4.84228V6.42229V9.04035V9.7436C2.82458 10.1049 2.92813 10.4662 3.1401 10.7599C3.47738 11.2248 3.94443 11.5667 4.45504 11.8244C5.08116 12.1424 5.75556 12.3735 6.4348 12.5519C8.09902 12.9903 9.84521 13.166 11.5623 13.2069C13.335 13.2478 15.1221 13.1323 16.8679 12.8048C17.6025 12.6674 18.3322 12.4892 19.0356 12.229C19.6282 12.01 20.2037 11.7498 20.7072 11.3621C21.1023 11.0561 21.4755 10.6444 21.5718 10.1362C21.6151 9.90981 21.6127 9.69541 21.6127 9.46902V7.08957V4.96296V4.84497C21.6127 4.4668 21.2803 4.10553 20.8901 4.1224C20.4938 4.13644 20.1639 4.43507 20.1639 4.83966L20.1636 4.83956Z" fill="#171717"/>
    <path d="M20.1636 9.78682V11.5257V14.2087C20.1636 14.4183 20.1829 14.6398 20.1562 14.8493C20.1658 14.7842 20.1731 14.7218 20.1827 14.6567C20.1707 14.7409 20.1489 14.8204 20.1151 14.8975C20.1391 14.8398 20.1634 14.782 20.1874 14.7242C20.1609 14.7844 20.132 14.8422 20.0958 14.8975C20.0789 14.924 20.0596 14.9482 20.0429 14.9746C19.9876 15.0566 20.1754 14.8133 20.108 14.8904C20.0985 14.9024 20.0863 14.9169 20.0767 14.9289C20.0285 14.9842 19.978 15.0373 19.9249 15.0855C19.896 15.1119 19.8647 15.1408 19.8334 15.165C19.819 15.177 19.8045 15.189 19.7901 15.2012C19.7081 15.271 19.9514 15.0808 19.8623 15.1459C19.5396 15.3795 19.1904 15.5625 18.8218 15.7167C18.8796 15.6927 18.9373 15.6685 18.9951 15.6445C17.8655 16.1167 16.6445 16.3597 15.4378 16.5235C15.5029 16.514 15.5653 16.5066 15.6304 16.4971C13.8506 16.7331 12.0394 16.7741 10.2478 16.644C9.7636 16.6077 9.28188 16.5597 8.80017 16.4971C8.86527 16.5066 8.92772 16.514 8.99281 16.5235C7.78609 16.3598 6.5627 16.1165 5.43549 15.6445C5.49326 15.6685 5.55104 15.6927 5.60881 15.7167C5.24264 15.5601 4.89358 15.3772 4.56831 15.1459C4.48633 15.0881 4.71051 15.259 4.65029 15.2086C4.63585 15.1966 4.6214 15.1846 4.60696 15.1724C4.57563 15.1459 4.54431 15.1195 4.51542 15.0928C4.46253 15.0422 4.40943 14.9917 4.36122 14.9362C4.34922 14.9217 4.33478 14.9049 4.32278 14.8904C4.26257 14.8206 4.43588 15.0471 4.39499 14.9844C4.37567 14.9555 4.3541 14.9291 4.33722 14.9002C4.30345 14.8448 4.27212 14.7871 4.24568 14.7269C4.26968 14.7846 4.29389 14.8424 4.31789 14.9002C4.28657 14.8231 4.26256 14.7435 4.25035 14.6593C4.25991 14.7244 4.26724 14.7869 4.2768 14.852C4.25503 14.6787 4.26948 14.498 4.26948 14.3245V13.1588V10.4301V9.79196H2.82434C2.8339 10.9047 3.91061 11.6055 4.82097 11.9981C6.2661 12.6218 7.8268 12.9013 9.3826 13.0699C11.0612 13.2506 12.7642 13.2675 14.4477 13.1277C15.9964 13.0002 17.5835 12.7713 19.0478 12.2269C19.5921 12.0245 20.1436 11.7886 20.6109 11.437C21.03 11.1215 21.425 10.7242 21.555 10.1968C21.5863 10.0668 21.6057 9.92948 21.6079 9.79461C21.6103 9.41644 21.2731 9.05517 20.8853 9.07204C20.4913 9.08119 20.1684 9.38226 20.1638 9.7869C20.1638 9.82535 20.1614 9.864 20.1565 9.9C20.166 9.83491 20.1734 9.77246 20.1829 9.70736C20.1709 9.79158 20.1492 9.87112 20.1154 9.94822C20.1394 9.89044 20.1636 9.83267 20.1876 9.7749C20.1612 9.83511 20.1323 9.89289 20.0961 9.94822C20.0792 9.97466 20.0599 9.99887 20.0432 10.0253C19.9878 10.1073 20.1756 9.864 20.1083 9.9411C20.0987 9.9531 20.0865 9.96754 20.0769 9.97955C20.0287 10.0349 19.9783 10.088 19.9252 10.1362C19.8963 10.1626 19.865 10.1915 19.8336 10.2157C19.8192 10.2277 19.8048 10.2397 19.7903 10.2519C19.7083 10.3217 19.9516 10.1315 19.8625 10.1966C19.5399 10.4301 19.1906 10.6132 18.822 10.7674C18.8798 10.7434 18.9376 10.7192 18.9953 10.6952C17.8657 11.1673 16.6448 11.4104 15.438 11.5742C15.5031 11.5646 15.5656 11.5573 15.6307 11.5478C13.8509 11.7837 12.0396 11.8248 10.248 11.6946C9.76384 11.6584 9.28212 11.6104 8.80041 11.5478C8.86551 11.5573 8.92796 11.5646 8.99306 11.5742C7.78633 11.4104 6.56294 11.1672 5.43573 10.6952C5.49351 10.7192 5.55128 10.7434 5.60905 10.7674C5.24289 10.6132 4.89383 10.4279 4.56855 10.1966C4.48657 10.1388 4.71075 10.3097 4.65053 10.2593C4.63609 10.2472 4.62165 10.2352 4.6072 10.223C4.57588 10.1966 4.54455 10.1702 4.51566 10.1435C4.46277 10.0929 4.40968 10.0424 4.36147 9.98687C4.34947 9.97242 4.33502 9.95554 4.32302 9.9411C4.26281 9.87132 4.43613 10.0977 4.39524 10.0351C4.37591 10.0062 4.35435 9.97975 4.33746 9.95086C4.30369 9.89553 4.27236 9.83775 4.24592 9.77754C4.26992 9.83532 4.29413 9.89309 4.31814 9.95086C4.28681 9.87376 4.2628 9.79422 4.2506 9.71C4.26016 9.7751 4.26748 9.83755 4.27704 9.90265C4.27216 9.8642 4.26972 9.82555 4.26972 9.78954C4.26728 9.41138 3.93976 9.0501 3.54715 9.06697C3.15454 9.08386 2.82458 9.38493 2.82458 9.78954V11.3696V13.9852V14.6885C2.82458 15.0498 2.92813 15.411 3.1401 15.7048C3.47738 16.1696 3.94443 16.5116 4.45504 16.7693C5.08116 17.0873 5.75556 17.3184 6.4348 17.4968C8.09902 17.9352 9.84521 18.1109 11.5623 18.1518C13.335 18.1927 15.1221 18.0771 16.8679 17.7496C17.6025 17.6123 18.3322 17.4341 19.0356 17.1739C19.6282 16.9548 20.2037 16.6946 20.7072 16.3069C21.1023 16.001 21.4755 15.5893 21.5718 15.0811C21.6151 14.8547 21.6127 14.6403 21.6127 14.4139V12.0344V9.90782V9.78984C21.6127 9.41167 21.2803 9.0504 20.8901 9.06727C20.4938 9.08131 20.1639 9.38238 20.1639 9.78697L20.1636 9.78682Z" fill="#171717"/>
    <path d="M20.1637 14.7342V16.4851V19.1634C20.1637 19.3705 20.183 19.5873 20.1564 19.7944C20.1659 19.7293 20.1732 19.6669 20.1828 19.6018C20.1708 19.6837 20.149 19.7631 20.1177 19.8402C20.1417 19.7824 20.1659 19.7246 20.1899 19.6669C20.1659 19.7271 20.1346 19.7824 20.1008 19.8379C20.0815 19.8668 20.0624 19.8957 20.0406 19.9246C19.9877 19.9993 20.1755 19.7584 20.1128 19.8306C20.1008 19.8426 20.0911 19.8571 20.0791 19.8691C20.0309 19.9244 19.9804 19.9751 19.9273 20.0257C19.8984 20.0522 19.8695 20.0764 19.8406 20.1028C19.8262 20.1148 19.8093 20.1268 19.7949 20.1413C19.6913 20.2255 19.9249 20.0448 19.8695 20.0835C19.5469 20.3194 19.1952 20.5025 18.829 20.6567C18.8868 20.6327 18.9446 20.6085 19.0024 20.5845C17.8825 21.0542 16.6687 21.2974 15.469 21.4613C15.5341 21.4517 15.5966 21.4444 15.6617 21.4348C13.8675 21.6757 12.0417 21.7166 10.2379 21.5866C9.74904 21.5504 9.26002 21.4999 8.77362 21.4348C8.83872 21.4444 8.90117 21.4517 8.96626 21.4613C7.76688 21.2975 6.55302 21.0542 5.43295 20.5845C5.49072 20.6085 5.5485 20.6327 5.60626 20.6567C5.2401 20.5001 4.88859 20.3172 4.56577 20.0835C4.50311 20.0377 4.73908 20.2208 4.64775 20.1461C4.6333 20.1341 4.61642 20.1221 4.60198 20.1077C4.57065 20.0812 4.53932 20.0524 4.50799 20.0257C4.4551 19.9751 4.40445 19.9246 4.35624 19.8691C4.34423 19.8571 4.33447 19.8426 4.32247 19.8306C4.25981 19.7584 4.44777 20.0017 4.39468 19.9246C4.37536 19.8982 4.35623 19.8717 4.33935 19.8451C4.30314 19.7873 4.27181 19.7295 4.24537 19.6669C4.26937 19.7246 4.29358 19.7824 4.31758 19.8402C4.28625 19.7631 4.26469 19.6835 4.25248 19.6018C4.26205 19.6669 4.26937 19.7293 4.27893 19.7944C4.25716 19.6258 4.27161 19.45 4.27161 19.2789V18.1108V15.3797V14.7342H2.82647C2.83603 15.8469 3.91275 16.5477 4.8231 16.9403C6.26824 17.564 7.82893 17.8435 9.38473 18.0122C11.0634 18.1928 12.7663 18.2097 14.4498 18.0699C15.9985 17.9424 17.5856 17.7135 19.0499 17.1692C19.5943 16.9668 20.1458 16.7308 20.613 16.3793C21.0321 16.0637 21.4272 15.6664 21.5571 15.139C21.5885 15.009 21.6078 14.8717 21.61 14.7368C21.6125 14.3587 21.2752 13.9974 20.8875 14.0143C20.4914 14.0285 20.1685 14.3296 20.1639 14.7342C20.1639 14.7726 20.1614 14.8113 20.1565 14.8473C20.1661 14.7822 20.1734 14.7197 20.183 14.6546C20.171 14.7388 20.1492 14.8184 20.1154 14.8955C20.1394 14.8377 20.1637 14.7799 20.1877 14.7222C20.1612 14.7824 20.1323 14.8402 20.0961 14.8955C20.0792 14.9219 20.0599 14.9461 20.0432 14.9726C19.9879 15.0546 20.1757 14.8113 20.1083 14.8884C20.0988 14.9004 20.0866 14.9148 20.077 14.9268C20.0288 14.9821 19.9783 15.0352 19.9252 15.0834C19.8963 15.1099 19.865 15.1388 19.8337 15.163C19.8193 15.175 19.8048 15.187 19.7904 15.1992C19.7084 15.269 19.9517 15.0788 19.8626 15.1439C19.5399 15.3774 19.1907 15.5605 18.8221 15.7147C18.8799 15.6907 18.9376 15.6665 18.9954 15.6425C17.8658 16.1146 16.6448 16.3577 15.4381 16.5215C15.5032 16.5119 15.5656 16.5046 15.6307 16.495C13.8509 16.731 12.0396 16.7721 10.248 16.6419C9.76389 16.6057 9.28217 16.5577 8.80046 16.495C8.86556 16.5046 8.92801 16.5119 8.9931 16.5215C7.78638 16.3577 6.56299 16.1144 5.43578 15.6425C5.49356 15.6665 5.55133 15.6907 5.6091 15.7147C5.24294 15.558 4.89387 15.3752 4.5686 15.1439C4.48662 15.0861 4.7108 15.257 4.65058 15.2065C4.63614 15.1945 4.62169 15.1825 4.60725 15.1703C4.57592 15.1439 4.5446 15.1174 4.51571 15.0908C4.46282 15.0401 4.40972 14.9897 4.36152 14.9341C4.34951 14.9197 4.33507 14.9028 4.32307 14.8884C4.26286 14.8186 4.43617 15.045 4.39528 14.9823C4.37596 14.9535 4.3544 14.927 4.33751 14.8981C4.30374 14.8428 4.27241 14.785 4.24597 14.7248C4.26997 14.7826 4.29418 14.8404 4.31818 14.8981C4.28686 14.821 4.26285 14.7415 4.25065 14.6573C4.26021 14.7224 4.26753 14.7848 4.27709 14.8499C4.27221 14.8115 4.26977 14.7728 4.26977 14.7368C4.26733 14.3586 3.93981 13.9974 3.5472 14.0142C3.15459 14.0311 2.82463 14.3322 2.82463 14.7368V16.4637V19.1347C2.82463 19.3177 2.82219 19.5008 2.82463 19.6815C2.83196 20.1752 3.05817 20.6087 3.393 20.9628C3.73496 21.3241 4.1829 21.5938 4.63102 21.8034C5.23803 22.0876 5.87618 22.302 6.52413 22.4706C8.1546 22.8872 9.85502 23.0607 11.5361 23.1016C13.3183 23.1449 15.1128 23.0294 16.8662 22.6994C17.5479 22.5719 18.2222 22.4079 18.8772 22.1817C19.4216 21.9915 19.9731 21.7675 20.4548 21.4447C20.845 21.1821 21.24 20.8475 21.4376 20.4091C21.5435 20.1707 21.6086 19.9491 21.6109 19.6841V19.5179V17.1624V14.8672V14.7372C21.6109 14.359 21.2785 13.9978 20.8883 14.0146C20.4941 14.0285 20.1641 14.3295 20.1641 14.7341L20.1637 14.7342Z" fill="#171717"/>
</svg>
