<svg width="20" height="23" viewBox="0 0 20 23" fill="none" xmlns="http://www.w3.org/2000/svg">
    <path d="M18.1636 3.83943C18.1636 3.87787 18.1612 3.91653 18.1563 3.95253C18.1659 3.88744 18.1732 3.82498 18.1827 3.75989C18.1707 3.84411 18.149 3.92364 18.1152 4.00074C18.1392 3.94297 18.1634 3.8852 18.1874 3.82743C18.161 3.88764 18.1321 3.94541 18.0959 4.00074C18.079 4.02719 18.0597 4.0514 18.043 4.07784C17.9877 4.15982 18.1754 3.91653 18.1081 3.99362C18.0985 4.00563 18.0863 4.02007 18.0768 4.03207C18.0286 4.0874 17.9781 4.1405 17.925 4.18871C17.8961 4.21516 17.8648 4.24404 17.8335 4.26825C17.819 4.28025 17.8046 4.29225 17.7901 4.30446C17.7082 4.37423 17.9515 4.18403 17.8624 4.24913C17.5397 4.48266 17.1905 4.66574 16.8219 4.81994C16.8796 4.79594 16.9374 4.77173 16.9952 4.74772C15.8656 5.21988 14.6446 5.46295 13.4378 5.62673C13.5029 5.61717 13.5654 5.60985 13.6305 5.60029C11.8507 5.83626 10.0394 5.87735 8.24782 5.74716C7.76367 5.71095 7.28195 5.66294 6.80024 5.60029C6.86533 5.60985 6.92778 5.61717 6.99288 5.62673C5.78615 5.46297 4.56276 5.21968 3.43556 4.74772C3.49333 4.77173 3.5511 4.79594 3.60887 4.81994C3.24271 4.6633 2.89365 4.48042 2.56838 4.24913C2.4864 4.19135 2.71057 4.36223 2.65036 4.31178C2.63591 4.29978 2.62147 4.28777 2.60703 4.27557C2.5757 4.24912 2.54437 4.22268 2.51549 4.19603C2.4626 4.14538 2.4095 4.09493 2.36129 4.03939C2.34929 4.02495 2.33485 4.00807 2.32284 3.99362C2.26263 3.92385 2.43595 4.15026 2.39506 4.08761C2.37573 4.05872 2.35417 4.03227 2.33728 4.00339C2.30352 3.94806 2.27219 3.89028 2.24574 3.83007C2.26975 3.88785 2.29396 3.94562 2.31796 4.00339C2.28663 3.92629 2.26263 3.84675 2.25042 3.76253C2.25998 3.82763 2.2673 3.89008 2.27687 3.95518C2.2673 3.87564 2.2673 3.7963 2.27931 3.71676C2.26975 3.78186 2.26242 3.84431 2.25286 3.90941C2.2673 3.82519 2.28907 3.74565 2.32263 3.66611C2.29863 3.72388 2.27442 3.78165 2.25042 3.83942C2.27931 3.77433 2.31552 3.70943 2.35396 3.64922C2.44062 3.51923 2.27686 3.73589 2.31775 3.69011C2.34176 3.66367 2.36352 3.63722 2.38529 3.61057C2.44307 3.54792 2.50572 3.4877 2.57082 3.43237C2.59726 3.41061 2.62371 3.38904 2.65035 3.36728C2.47704 3.52615 2.59746 3.40817 2.64791 3.37216C2.94654 3.16019 3.27648 2.99887 3.61378 2.85668C3.55601 2.88068 3.49823 2.90489 3.44047 2.9289C4.56278 2.45919 5.77903 2.21607 6.98086 2.05458C6.91577 2.06414 6.85332 2.07146 6.78822 2.08102C8.57529 1.84261 10.3913 1.80172 12.1881 1.93171C12.6747 1.96792 13.1586 2.01593 13.6403 2.08102C13.5753 2.07146 13.5128 2.06414 13.4477 2.05458C14.6495 2.21589 15.8658 2.45919 16.9881 2.9289C16.9303 2.90489 16.8726 2.88068 16.8148 2.85668C17.1521 2.99888 17.482 3.16263 17.7807 3.37216C17.8264 3.40593 17.9613 3.52392 17.7782 3.36728C17.8047 3.38904 17.8311 3.41061 17.8578 3.43237C17.9229 3.4877 17.9853 3.54792 18.0433 3.61057C18.0626 3.63234 18.0817 3.65635 18.1035 3.67811C18.1806 3.76721 17.9831 3.50947 18.077 3.64679C18.1179 3.707 18.1517 3.76966 18.1806 3.83699C18.1566 3.77921 18.1324 3.72144 18.1084 3.66367C18.1421 3.74321 18.1637 3.82255 18.1781 3.90697C18.1686 3.84187 18.1613 3.77942 18.1517 3.71432C18.1615 3.75745 18.1639 3.79854 18.1639 3.83943C18.1688 4.2176 18.4914 4.57887 18.8865 4.562C19.2742 4.54511 19.6139 4.24404 19.609 3.83943C19.597 3.05421 19.0407 2.46897 18.4216 2.05965C17.8822 1.70569 17.2584 1.46238 16.6465 1.26485C15.3002 0.831351 13.8769 0.624252 12.4702 0.506297C10.8567 0.371428 9.22844 0.38099 7.61713 0.537625C6.24422 0.672494 4.8546 0.889347 3.54924 1.3444C2.32809 1.77078 0.615646 2.58243 0.856501 4.14536C0.92404 4.5813 1.22023 4.98593 1.55017 5.26767C2.00543 5.66028 2.52801 5.92269 3.08196 6.15402C4.43554 6.71525 5.91671 6.95611 7.36424 7.11255C8.98514 7.28831 10.6278 7.31007 12.2534 7.1872C13.7756 7.0741 15.3265 6.85725 16.7765 6.3684C17.3378 6.18063 17.9061 5.95178 18.4048 5.62896C18.8023 5.37122 19.214 5.03413 19.4211 4.59575C19.5366 4.35245 19.6089 4.10915 19.6113 3.8372C19.6137 3.45903 19.2765 3.09776 18.8887 3.11463C18.4914 3.13619 18.1686 3.43482 18.1639 3.83944L18.1636 3.83943Z" fill="#C9C9CA" />
    <path d="M18.1634 3.83956V5.57846V8.26146C18.1634 8.47099 18.1828 8.69252 18.1561 8.90206C18.1657 8.83696 18.173 8.77451 18.1826 8.70942C18.1706 8.79363 18.1488 8.87317 18.115 8.95027C18.139 8.8925 18.1632 8.83472 18.1872 8.77695C18.1608 8.83717 18.1319 8.89494 18.0957 8.95027C18.0788 8.97672 18.0595 9.00092 18.0428 9.02737C17.9875 9.10935 18.1752 8.86605 18.1079 8.94315C18.0983 8.95516 18.0861 8.9696 18.0766 8.9816C18.0284 9.03693 17.9779 9.09002 17.9248 9.13824C17.8959 9.16468 17.8646 9.19357 17.8333 9.21777C17.8188 9.22978 17.8044 9.24178 17.7899 9.25398C17.708 9.32376 17.9513 9.13356 17.8622 9.19865C17.5395 9.43219 17.1903 9.61527 16.8217 9.76947C16.8794 9.74546 16.9372 9.72125 16.995 9.69725C15.8654 10.1694 14.6444 10.4125 13.4377 10.5763C13.5028 10.5667 13.5652 10.5594 13.6303 10.5498C11.8505 10.7858 10.0392 10.8269 8.24763 10.6967C7.76348 10.6605 7.28176 10.6125 6.80005 10.5498C6.86514 10.5594 6.92759 10.5667 6.99269 10.5763C5.78596 10.4125 4.56257 10.1692 3.43537 9.69725C3.49314 9.72126 3.55092 9.74546 3.60868 9.76947C3.24252 9.61527 2.89346 9.42995 2.56819 9.19865C2.48621 9.14088 2.71038 9.31176 2.65017 9.26131C2.63572 9.2493 2.62128 9.2373 2.60684 9.2251C2.57551 9.19865 2.54418 9.17221 2.5153 9.14556C2.46241 9.09491 2.40931 9.04446 2.3611 8.98892C2.3491 8.97448 2.33466 8.9576 2.32265 8.94315C2.26244 8.87338 2.43576 9.09979 2.39487 9.03713C2.37554 9.00825 2.35398 8.9818 2.3371 8.95292C2.30333 8.89758 2.272 8.83981 2.24556 8.7796C2.26956 8.83737 2.29377 8.89515 2.31777 8.95292C2.28644 8.87582 2.26244 8.79628 2.25023 8.71206C2.25979 8.77716 2.26712 8.83961 2.27668 8.9047C2.25491 8.73139 2.26935 8.55074 2.26935 8.37722V7.21158V4.48285V3.8447H0.824219C0.83378 4.95743 1.91049 5.65823 2.82085 6.05084C4.26598 6.67456 5.82668 6.95406 7.38247 7.12268C9.06112 7.30333 10.764 7.32021 12.4476 7.18046C13.9962 7.05291 15.5834 6.82405 17.0476 6.27968C17.592 6.07728 18.1435 5.8413 18.6108 5.48978C19.0298 5.17427 19.4249 4.77695 19.5549 4.24951C19.5862 4.11953 19.6055 3.98221 19.6078 3.84734C19.6102 3.46917 19.2729 3.1079 18.8852 3.12477C18.4912 3.13637 18.1683 3.435 18.1637 3.83963C18.1637 3.87808 18.1612 3.91673 18.1564 3.95274C18.1659 3.88764 18.1732 3.82519 18.1828 3.7601C18.1708 3.84431 18.149 3.92385 18.1153 4.00095C18.1393 3.94318 18.1635 3.8854 18.1875 3.82763C18.161 3.88785 18.1321 3.94562 18.0959 4.00095C18.0791 4.0274 18.0597 4.05161 18.043 4.07805C17.9877 4.16003 18.1755 3.91673 18.1081 3.99383C18.0986 4.00583 18.0864 4.02028 18.0768 4.03228C18.0286 4.08761 17.9782 4.1407 17.9251 4.18892C17.8962 4.21536 17.8648 4.24425 17.8335 4.26845C17.8191 4.28046 17.8046 4.29246 17.7902 4.30466C17.7082 4.37444 17.9515 4.18424 17.8624 4.24933C17.5398 4.48287 17.1905 4.66595 16.8219 4.82015C16.8797 4.79614 16.9375 4.77194 16.9952 4.74793C15.8656 5.22008 14.6446 5.46316 13.4379 5.62694C13.503 5.61738 13.5654 5.61005 13.6305 5.60049C11.8508 5.83646 10.0395 5.87756 8.24787 5.74737C7.76372 5.71116 7.282 5.66315 6.80029 5.60049C6.86539 5.61005 6.92784 5.61738 6.99293 5.62694C5.78621 5.46318 4.56282 5.21988 3.43561 4.74793C3.49339 4.77194 3.55116 4.79614 3.60893 4.82015C3.24276 4.66351 2.8937 4.48063 2.56843 4.24933C2.48645 4.19156 2.71063 4.36244 2.65041 4.31199C2.63597 4.29998 2.62152 4.28798 2.60708 4.27578C2.57575 4.24933 2.54443 4.22289 2.51554 4.19624C2.46265 4.14559 2.40955 4.09514 2.36135 4.0396C2.34934 4.02516 2.3349 4.00827 2.3229 3.99383C2.26269 3.92406 2.436 4.15047 2.39511 4.08781C2.37579 4.05893 2.35422 4.03248 2.33734 4.0036C2.30357 3.94826 2.27224 3.89049 2.2458 3.83028C2.2698 3.88805 2.29401 3.94583 2.31801 4.0036C2.28669 3.9265 2.26268 3.84696 2.25047 3.76274C2.26004 3.82784 2.26736 3.89029 2.27692 3.95538C2.27204 3.91694 2.2696 3.87828 2.2696 3.84228C2.26716 3.46411 1.93964 3.10284 1.54703 3.11971C1.15442 3.13659 0.824462 3.43767 0.824462 3.84228V5.42229V8.04035V8.7436C0.824462 9.10488 0.928006 9.46617 1.13997 9.75994C1.47726 10.2248 1.9443 10.5667 2.45492 10.8244C3.08104 11.1424 3.75543 11.3735 4.43467 11.5519C6.0989 11.9903 7.84509 12.166 9.56222 12.2069C11.3349 12.2478 13.1219 12.1323 14.8678 11.8048C15.6024 11.6674 16.3321 11.4892 17.0355 11.229C17.6281 11.01 18.2036 10.7498 18.7071 10.3621C19.1021 10.0561 19.4754 9.64439 19.5717 9.13622C19.615 8.90981 19.6126 8.6954 19.6126 8.46902V6.08957V3.96296V3.84497C19.6126 3.4668 19.2802 3.10553 18.89 3.1224C18.4937 3.13644 18.1638 3.43507 18.1638 3.83966L18.1634 3.83956Z" fill="#C9C9CA" />
    <path d="M18.1634 8.78682V10.5257V13.2087C18.1634 13.4183 18.1828 13.6398 18.1561 13.8493C18.1657 13.7842 18.173 13.7218 18.1826 13.6567C18.1706 13.7409 18.1488 13.8204 18.115 13.8975C18.139 13.8398 18.1632 13.782 18.1872 13.7242C18.1608 13.7844 18.1319 13.8422 18.0957 13.8975C18.0788 13.924 18.0595 13.9482 18.0428 13.9746C17.9875 14.0566 18.1752 13.8133 18.1079 13.8904C18.0983 13.9024 18.0861 13.9169 18.0766 13.9289C18.0284 13.9842 17.9779 14.0373 17.9248 14.0855C17.8959 14.1119 17.8646 14.1408 17.8333 14.165C17.8188 14.177 17.8044 14.189 17.7899 14.2012C17.708 14.271 17.9513 14.0808 17.8622 14.1459C17.5395 14.3795 17.1903 14.5625 16.8217 14.7167C16.8794 14.6927 16.9372 14.6685 16.995 14.6445C15.8654 15.1167 14.6444 15.3597 13.4377 15.5235C13.5028 15.514 13.5652 15.5066 13.6303 15.4971C11.8505 15.7331 10.0392 15.7741 8.24763 15.644C7.76348 15.6077 7.28176 15.5597 6.80005 15.4971C6.86514 15.5066 6.92759 15.514 6.99269 15.5235C5.78596 15.3598 4.56257 15.1165 3.43537 14.6445C3.49314 14.6685 3.55092 14.6927 3.60868 14.7167C3.24252 14.5601 2.89346 14.3772 2.56819 14.1459C2.48621 14.0881 2.71038 14.259 2.65017 14.2086C2.63572 14.1966 2.62128 14.1846 2.60684 14.1724C2.57551 14.1459 2.54418 14.1195 2.5153 14.0928C2.46241 14.0422 2.40931 13.9917 2.3611 13.9362C2.3491 13.9217 2.33466 13.9049 2.32265 13.8904C2.26244 13.8206 2.43576 14.0471 2.39487 13.9844C2.37554 13.9555 2.35398 13.9291 2.3371 13.9002C2.30333 13.8448 2.272 13.7871 2.24556 13.7269C2.26956 13.7846 2.29377 13.8424 2.31777 13.9002C2.28644 13.8231 2.26244 13.7435 2.25023 13.6593C2.25979 13.7244 2.26712 13.7869 2.27668 13.852C2.25491 13.6787 2.26935 13.498 2.26935 13.3245V12.1588V9.43012V8.79196H0.824219C0.83378 9.90469 1.91049 10.6055 2.82085 10.9981C4.26598 11.6218 5.82668 11.9013 7.38247 12.0699C9.06112 12.2506 10.764 12.2675 12.4476 12.1277C13.9962 12.0002 15.5834 11.7713 17.0476 11.2269C17.592 11.0245 18.1435 10.7886 18.6108 10.437C19.0298 10.1215 19.4249 9.72421 19.5549 9.19678C19.5862 9.06679 19.6055 8.92948 19.6078 8.79461C19.6102 8.41644 19.2729 8.05517 18.8852 8.07204C18.4912 8.08119 18.1683 8.38226 18.1637 8.7869C18.1637 8.82535 18.1612 8.864 18.1564 8.9C18.1659 8.83491 18.1732 8.77246 18.1828 8.70736C18.1708 8.79158 18.149 8.87112 18.1153 8.94822C18.1393 8.89044 18.1635 8.83267 18.1875 8.7749C18.161 8.83511 18.1321 8.89289 18.0959 8.94822C18.0791 8.97466 18.0597 8.99887 18.043 9.02532C17.9877 9.1073 18.1755 8.864 18.1081 8.9411C18.0986 8.9531 18.0864 8.96754 18.0768 8.97955C18.0286 9.03488 17.9782 9.08797 17.9251 9.13618C17.8962 9.16263 17.8648 9.19151 17.8335 9.21572C17.8191 9.22772 17.8046 9.23972 17.7902 9.25193C17.7082 9.3217 17.9515 9.1315 17.8624 9.1966C17.5398 9.43013 17.1905 9.61321 16.8219 9.76741C16.8797 9.74341 16.9375 9.7192 16.9952 9.6952C15.8656 10.1673 14.6446 10.4104 13.4379 10.5742C13.503 10.5646 13.5654 10.5573 13.6305 10.5478C11.8508 10.7837 10.0395 10.8248 8.24787 10.6946C7.76372 10.6584 7.282 10.6104 6.80029 10.5478C6.86539 10.5573 6.92784 10.5646 6.99293 10.5742C5.78621 10.4104 4.56282 10.1672 3.43561 9.6952C3.49339 9.7192 3.55116 9.74341 3.60893 9.76741C3.24276 9.61322 2.8937 9.4279 2.56843 9.1966C2.48645 9.13882 2.71063 9.3097 2.65041 9.25925C2.63597 9.24725 2.62152 9.23525 2.60708 9.22304C2.57575 9.1966 2.54443 9.17015 2.51554 9.1435C2.46265 9.09285 2.40955 9.0424 2.36135 8.98687C2.34934 8.97242 2.3349 8.95554 2.3229 8.9411C2.26269 8.87132 2.436 9.09773 2.39511 9.03508C2.37579 9.00619 2.35422 8.97975 2.33734 8.95086C2.30357 8.89553 2.27224 8.83775 2.2458 8.77754C2.2698 8.83532 2.29401 8.89309 2.31801 8.95086C2.28669 8.87376 2.26268 8.79422 2.25047 8.71C2.26004 8.7751 2.26736 8.83755 2.27692 8.90265C2.27204 8.8642 2.2696 8.82555 2.2696 8.78954C2.26716 8.41138 1.93964 8.0501 1.54703 8.06697C1.15442 8.08386 0.824462 8.38493 0.824462 8.78954V10.3696V12.9852V13.6885C0.824462 14.0498 0.928006 14.411 1.13997 14.7048C1.47726 15.1696 1.9443 15.5116 2.45492 15.7693C3.08104 16.0873 3.75543 16.3184 4.43467 16.4968C6.0989 16.9352 7.84509 17.1109 9.56222 17.1518C11.3349 17.1927 13.1219 17.0771 14.8678 16.7496C15.6024 16.6123 16.3321 16.4341 17.0355 16.1739C17.6281 15.9548 18.2036 15.6946 18.7071 15.3069C19.1021 15.001 19.4754 14.5893 19.5717 14.0811C19.615 13.8547 19.6126 13.6403 19.6126 13.4139V11.0344V8.90782V8.78984C19.6126 8.41167 19.2802 8.0504 18.89 8.06727C18.4937 8.08131 18.1638 8.38238 18.1638 8.78697L18.1634 8.78682Z" fill="#C9C9CA" />
    <path d="M18.1636 13.7342V15.4851V18.1634C18.1636 18.3705 18.183 18.5873 18.1563 18.7944C18.1659 18.7293 18.1732 18.6669 18.1827 18.6018C18.1707 18.6837 18.149 18.7631 18.1177 18.8402C18.1417 18.7824 18.1659 18.7246 18.1899 18.6669C18.1659 18.7271 18.1345 18.7824 18.1008 18.8379C18.0814 18.8668 18.0623 18.8957 18.0406 18.9246C17.9877 18.9993 18.1754 18.7584 18.1128 18.8306C18.1008 18.8426 18.091 18.8571 18.079 18.8691C18.0308 18.9244 17.9803 18.9751 17.9272 19.0257C17.8984 19.0522 17.8695 19.0764 17.8406 19.1028C17.8261 19.1148 17.8093 19.1268 17.7948 19.1413C17.6913 19.2255 17.9248 19.0448 17.8695 19.0835C17.5468 19.3194 17.1951 19.5025 16.829 19.6567C16.8867 19.6327 16.9445 19.6085 17.0023 19.5845C15.8824 20.0542 14.6686 20.2974 13.469 20.4613C13.5341 20.4517 13.5965 20.4444 13.6616 20.4348C11.8674 20.6757 10.0416 20.7166 8.23781 20.5866C7.74898 20.5504 7.25996 20.4999 6.77356 20.4348C6.83865 20.4444 6.9011 20.4517 6.9662 20.4613C5.76682 20.2975 4.55296 20.0542 3.43289 19.5845C3.49066 19.6085 3.54843 19.6327 3.6062 19.6567C3.24004 19.5001 2.88853 19.3172 2.56571 19.0835C2.50305 19.0377 2.73902 19.2208 2.64769 19.1461C2.63324 19.1341 2.61636 19.1221 2.60191 19.1077C2.57059 19.0812 2.53926 19.0524 2.50793 19.0257C2.45504 18.9751 2.40439 18.9246 2.35617 18.8691C2.34417 18.8571 2.33441 18.8426 2.3224 18.8306C2.25975 18.7584 2.44771 19.0017 2.39462 18.9246C2.37529 18.8982 2.35617 18.8717 2.33929 18.8451C2.30308 18.7873 2.27175 18.7295 2.2453 18.6669C2.26931 18.7246 2.29352 18.7824 2.31752 18.8402C2.28619 18.7631 2.26463 18.6835 2.25242 18.6018C2.26198 18.6669 2.26931 18.7293 2.27887 18.7944C2.2571 18.6258 2.27155 18.45 2.27155 18.2789V17.1108V14.3797V13.7342H0.826411C0.835972 14.8469 1.91268 15.5477 2.82304 15.9403C4.26818 16.564 5.82887 16.8435 7.38467 17.0122C9.06332 17.1928 10.7662 17.2097 12.4498 17.0699C13.9984 16.9424 15.5856 16.7135 17.0498 16.1692C17.5942 15.9668 18.1457 15.7308 18.613 15.3793C19.032 15.0637 19.4271 14.6664 19.5571 14.139C19.5884 14.009 19.6077 13.8717 19.61 13.7368C19.6124 13.3587 19.2751 12.9974 18.8874 13.0143C18.4913 13.0285 18.1685 13.3296 18.1638 13.7342C18.1638 13.7726 18.1614 13.8113 18.1565 13.8473C18.166 13.7822 18.1734 13.7197 18.1829 13.6546C18.1709 13.7388 18.1491 13.8184 18.1154 13.8955C18.1394 13.8377 18.1636 13.7799 18.1876 13.7222C18.1611 13.7824 18.1323 13.8402 18.0961 13.8955C18.0792 13.9219 18.0598 13.9461 18.0432 13.9726C17.9878 14.0546 18.1756 13.8113 18.1083 13.8884C18.0987 13.9004 18.0865 13.9148 18.0769 13.9268C18.0287 13.9821 17.9783 14.0352 17.9252 14.0834C17.8963 14.1099 17.865 14.1388 17.8336 14.163C17.8192 14.175 17.8047 14.187 17.7903 14.1992C17.7083 14.269 17.9516 14.0788 17.8625 14.1439C17.5399 14.3774 17.1906 14.5605 16.822 14.7147C16.8798 14.6907 16.9376 14.6665 16.9953 14.6425C15.8657 15.1146 14.6447 15.3577 13.438 15.5215C13.5031 15.5119 13.5656 15.5046 13.6307 15.495C11.8509 15.731 10.0396 15.7721 8.24798 15.6419C7.76383 15.6057 7.28211 15.5577 6.8004 15.495C6.8655 15.5046 6.92795 15.5119 6.99304 15.5215C5.78632 15.3577 4.56293 15.1144 3.43572 14.6425C3.49349 14.6665 3.55127 14.6907 3.60904 14.7147C3.24287 14.558 2.89381 14.3752 2.56854 14.1439C2.48656 14.0861 2.71074 14.257 2.65052 14.2065C2.63608 14.1945 2.62163 14.1825 2.60719 14.1703C2.57586 14.1439 2.54454 14.1174 2.51565 14.0908C2.46276 14.0401 2.40966 13.9897 2.36146 13.9341C2.34945 13.9197 2.33501 13.9028 2.32301 13.8884C2.2628 13.8186 2.43611 14.045 2.39522 13.9823C2.3759 13.9535 2.35433 13.927 2.33745 13.8981C2.30368 13.8428 2.27235 13.785 2.24591 13.7248C2.26991 13.7826 2.29412 13.8404 2.31812 13.8981C2.2868 13.821 2.26279 13.7415 2.25058 13.6573C2.26014 13.7224 2.26747 13.7848 2.27703 13.8499C2.27215 13.8115 2.26971 13.7728 2.26971 13.7368C2.26727 13.3586 1.93975 12.9974 1.54714 13.0142C1.15453 13.0311 0.824571 13.3322 0.824571 13.7368V15.4637V18.1347C0.824571 18.3177 0.82213 18.5008 0.824571 18.6815C0.831895 19.1752 1.05811 19.6087 1.39294 19.9628C1.7349 20.3241 2.18284 20.5938 2.63096 20.8034C3.23797 21.0876 3.87612 21.302 4.52406 21.4706C6.15454 21.8872 7.85496 22.0607 9.53605 22.1016C11.3183 22.1449 13.1127 22.0294 14.8661 21.6994C15.5478 21.5719 16.2222 21.4079 16.8772 21.1817C17.4215 20.9915 17.973 20.7675 18.4548 20.4447C18.8449 20.1821 19.24 19.8475 19.4375 19.4091C19.5435 19.1707 19.6086 18.9491 19.6108 18.6841V18.5179V16.1624V13.8672V13.7372C19.6108 13.359 19.2784 12.9978 18.8882 13.0146C18.494 13.0285 18.1641 13.3295 18.1641 13.7341L18.1636 13.7342Z" fill="#C9C9CA" />
</svg>
