<svg width="24" height="24" viewBox="0 0 24 24" fill="none" xmlns="http://www.w3.org/2000/svg">
    <path d="M20.1635 4.83918C20.1635 4.87763 20.1611 4.91628 20.1562 4.95229C20.1657 4.88719 20.1731 4.82474 20.1826 4.75964C20.1706 4.84386 20.1489 4.9234 20.1151 5.0005C20.1391 4.94273 20.1633 4.88495 20.1873 4.82718C20.1609 4.88739 20.132 4.94517 20.0958 5.0005C20.0789 5.02695 20.0596 5.05115 20.0429 5.0776C19.9875 5.15958 20.1753 4.91628 20.108 4.99338C20.0984 5.00538 20.0862 5.01983 20.0766 5.03183C20.0284 5.08716 19.978 5.14025 19.9249 5.18847C19.896 5.21491 19.8647 5.2438 19.8333 5.268C19.8189 5.28 19.8045 5.29201 19.79 5.30421C19.708 5.37399 19.9513 5.18378 19.8622 5.24888C19.5396 5.48241 19.1903 5.6655 18.8217 5.8197C18.8795 5.79569 18.9373 5.77148 18.995 5.74748C17.8654 6.21963 16.6445 6.4627 15.4377 6.62649C15.5028 6.61693 15.5653 6.6096 15.6304 6.60004C13.8506 6.83601 12.0393 6.87711 10.2477 6.74691C9.76354 6.7107 9.28183 6.6627 8.80012 6.60004C8.86521 6.6096 8.92766 6.61693 8.99276 6.62649C7.78603 6.46273 6.56264 6.21943 5.43543 5.74748C5.49321 5.77149 5.55098 5.79569 5.60875 5.8197C5.24259 5.66306 4.89353 5.48018 4.56825 5.24888C4.48627 5.19111 4.71045 5.36199 4.65023 5.31153C4.63579 5.29953 4.62135 5.28753 4.6069 5.27532C4.57558 5.24888 4.54425 5.22244 4.51536 5.19579C4.46247 5.14513 4.40938 5.09469 4.36117 5.03915C4.34917 5.02471 4.33472 5.00782 4.32272 4.99338C4.26251 4.92361 4.43583 5.15002 4.39494 5.08736C4.37561 5.05848 4.35405 5.03203 4.33716 5.00314C4.30339 4.94781 4.27207 4.89004 4.24562 4.82983C4.26963 4.8876 4.29383 4.94537 4.31784 5.00314C4.28651 4.92604 4.2625 4.84651 4.2503 4.76229C4.25986 4.82738 4.26718 4.88983 4.27674 4.95493C4.26718 4.87539 4.26718 4.79606 4.27918 4.71652C4.26962 4.78161 4.2623 4.84406 4.25274 4.90916C4.26718 4.82494 4.28895 4.7454 4.32251 4.66586C4.29851 4.72364 4.2743 4.78141 4.2503 4.83918C4.27918 4.77408 4.31539 4.70919 4.35384 4.64898C4.4405 4.51899 4.27674 4.73564 4.31763 4.68987C4.34164 4.66342 4.3634 4.63698 4.38517 4.61033C4.44294 4.54768 4.5056 4.48746 4.57069 4.43213C4.59714 4.41036 4.62358 4.3888 4.65023 4.36703C4.47691 4.52591 4.59734 4.40792 4.64779 4.37192C4.94642 4.15995 5.27636 3.99863 5.61366 3.85644C5.55589 3.88044 5.49811 3.90465 5.44034 3.92865C6.56265 3.45894 7.77891 3.21582 8.98074 3.05433C8.91565 3.06389 8.8532 3.07122 8.7881 3.08078C10.5752 2.84236 12.3912 2.80147 14.188 2.93146C14.6746 2.96767 15.1585 3.01568 15.6402 3.08078C15.5751 3.07122 15.5127 3.06389 15.4476 3.05433C16.6494 3.21565 17.8657 3.45894 18.988 3.92865C18.9302 3.90465 18.8724 3.88044 18.8147 3.85644C19.1519 3.99863 19.4819 4.16239 19.7805 4.37192C19.8263 4.40568 19.9612 4.52367 19.7781 4.36703C19.8045 4.3888 19.831 4.41036 19.8576 4.43213C19.9227 4.48746 19.9852 4.54768 20.0432 4.61033C20.0625 4.6321 20.0816 4.6561 20.1034 4.67787C20.1805 4.76697 19.9829 4.50923 20.0769 4.64654C20.1178 4.70675 20.1516 4.76941 20.1805 4.83674C20.1565 4.77897 20.1323 4.72119 20.1083 4.66343C20.142 4.74296 20.1636 4.8223 20.178 4.90672C20.1685 4.84163 20.1611 4.77918 20.1516 4.71408C20.1613 4.75721 20.1638 4.7983 20.1638 4.83918C20.1687 5.21735 20.4913 5.57863 20.8864 5.56175C21.2741 5.54487 21.6138 5.2438 21.6089 4.83918C21.5969 4.05397 21.0406 3.46873 20.4215 3.0594C19.882 2.70544 19.2583 2.46213 18.6464 2.26461C17.3001 1.83111 15.8768 1.62401 14.4701 1.50605C12.8566 1.37118 11.2283 1.38075 9.61701 1.53738C8.2441 1.67225 6.85448 1.8891 5.54912 2.34416C4.32797 2.77054 2.61552 3.58218 2.85638 5.14511C2.92392 5.58106 3.22011 5.98569 3.55004 6.26742C4.00531 6.66004 4.52789 6.92245 5.08183 7.15377C6.43542 7.71501 7.91659 7.95586 9.36412 8.1123C10.985 8.28806 12.6277 8.30983 14.2533 8.18696C15.7755 8.07385 17.3264 7.85701 18.7764 7.36815C19.3376 7.18039 19.906 6.95154 20.4046 6.62871C20.8021 6.37097 21.2139 6.03389 21.421 5.59551C21.5365 5.35221 21.6087 5.10891 21.6112 4.83695C21.6136 4.45879 21.2763 4.09751 20.8886 4.11439C20.4913 4.13595 20.1685 4.43458 20.1638 4.83919L20.1635 4.83918Z" fill="#666C80"/>
    <path d="M20.1634 4.83907V6.57797V9.26097C20.1634 9.4705 20.1828 9.69203 20.1561 9.90157C20.1657 9.83647 20.173 9.77402 20.1826 9.70893C20.1706 9.79315 20.1488 9.87268 20.115 9.94978C20.139 9.89201 20.1632 9.83424 20.1872 9.77647C20.1608 9.83668 20.1319 9.89445 20.0957 9.94978C20.0788 9.97623 20.0595 10.0004 20.0428 10.0269C19.9875 10.1089 20.1752 9.86556 20.1079 9.94267C20.0983 9.95467 20.0861 9.96911 20.0766 9.98111C20.0284 10.0364 19.9779 10.0895 19.9248 10.1377C19.8959 10.1642 19.8646 10.1931 19.8333 10.2173C19.8188 10.2293 19.8044 10.2413 19.7899 10.2535C19.708 10.3233 19.9513 10.1331 19.8622 10.1982C19.5395 10.4317 19.1903 10.6148 18.8217 10.769C18.8794 10.745 18.9372 10.7208 18.995 10.6968C17.8654 11.1689 16.6444 11.412 15.4377 11.5758C15.5028 11.5662 15.5652 11.5589 15.6303 11.5493C13.8505 11.7853 12.0392 11.8264 10.2476 11.6962C9.76348 11.66 9.28176 11.612 8.80005 11.5493C8.86514 11.5589 8.92759 11.5662 8.99269 11.5758C7.78596 11.412 6.56257 11.1687 5.43537 10.6968C5.49314 10.7208 5.55092 10.745 5.60868 10.769C5.24252 10.6148 4.89346 10.4295 4.56819 10.1982C4.48621 10.1404 4.71038 10.3113 4.65017 10.2608C4.63572 10.2488 4.62128 10.2368 4.60684 10.2246C4.57551 10.1982 4.54418 10.1717 4.5153 10.1451C4.46241 10.0944 4.40931 10.044 4.3611 9.98843C4.3491 9.97399 4.33466 9.95711 4.32265 9.94266C4.26244 9.87289 4.43576 10.0993 4.39487 10.0366C4.37555 10.0078 4.35398 9.98131 4.3371 9.95243C4.30333 9.8971 4.272 9.83932 4.24556 9.77911C4.26956 9.83688 4.29377 9.89466 4.31777 9.95243C4.28644 9.87533 4.26244 9.79579 4.25023 9.71157C4.25979 9.77667 4.26712 9.83912 4.27668 9.90421C4.25491 9.7309 4.26935 9.55025 4.26935 9.37673V8.21109V5.48236V4.84421H2.82422C2.83378 5.95694 3.91049 6.65774 4.82085 7.05035C6.26598 7.67407 7.82668 7.95357 9.38247 8.12219C11.0611 8.30284 12.764 8.31972 14.4476 8.17997C15.9962 8.05242 17.5834 7.82356 19.0476 7.27919C19.592 7.07679 20.1435 6.84081 20.6108 6.48929C21.0298 6.17378 21.4249 5.77646 21.5549 5.24903C21.5862 5.11904 21.6055 4.98173 21.6078 4.84685C21.6102 4.46868 21.2729 4.10741 20.8852 4.12428C20.4912 4.13588 20.1683 4.43451 20.1637 4.83914C20.1637 4.87759 20.1612 4.91624 20.1564 4.95225C20.1659 4.88715 20.1732 4.8247 20.1828 4.75961C20.1708 4.84383 20.149 4.92336 20.1153 5.00046C20.1393 4.94269 20.1635 4.88491 20.1875 4.82715C20.161 4.88736 20.1321 4.94513 20.0959 5.00046C20.0791 5.02691 20.0597 5.05112 20.043 5.07756C19.9877 5.15954 20.1755 4.91624 20.1081 4.99334C20.0986 5.00535 20.0864 5.01979 20.0768 5.03179C20.0286 5.08712 19.9782 5.14022 19.9251 5.18843C19.8962 5.21487 19.8648 5.24376 19.8335 5.26797C19.8191 5.27997 19.8046 5.29197 19.7902 5.30418C19.7082 5.37395 19.9515 5.18375 19.8624 5.24884C19.5398 5.48238 19.1905 5.66546 18.8219 5.81966C18.8797 5.79565 18.9375 5.77145 18.9952 5.74744C17.8656 6.21959 16.6446 6.46267 15.4379 6.62645C15.503 6.61689 15.5654 6.60957 15.6305 6.60001C13.8508 6.83598 12.0395 6.87707 10.2479 6.74688C9.76372 6.71067 9.282 6.66266 8.80029 6.60001C8.86539 6.60957 8.92784 6.61689 8.99293 6.62645C7.78621 6.46269 6.56282 6.2194 5.43561 5.74744C5.49339 5.77145 5.55116 5.79566 5.60893 5.81966C5.24276 5.66302 4.8937 5.48014 4.56843 5.24884C4.48645 5.19107 4.71063 5.36195 4.65041 5.3115C4.63597 5.2995 4.62152 5.28749 4.60708 5.27529C4.57575 5.24884 4.54443 5.2224 4.51554 5.19575C4.46265 5.1451 4.40955 5.09465 4.36135 5.03911C4.34934 5.02467 4.3349 5.00779 4.3229 4.99334C4.26269 4.92357 4.436 5.14998 4.39511 5.08733C4.37579 5.05844 4.35422 5.03199 4.33734 5.00311C4.30357 4.94778 4.27224 4.89 4.2458 4.82979C4.2698 4.88756 4.29401 4.94534 4.31801 5.00311C4.28669 4.92601 4.26268 4.84647 4.25047 4.76225C4.26004 4.82735 4.26736 4.8898 4.27692 4.95489C4.27204 4.91645 4.2696 4.87779 4.2696 4.84179C4.26716 4.46362 3.93964 4.10235 3.54703 4.11922C3.15442 4.13611 2.82446 4.43718 2.82446 4.84179V6.4218V9.03987V9.74311C2.82446 10.1044 2.92801 10.4657 3.13997 10.7594C3.47726 11.2243 3.9443 11.5662 4.45492 11.824C5.08104 12.1419 5.75543 12.373 6.43467 12.5514C8.0989 12.9898 9.84509 13.1656 11.5622 13.2064C13.3349 13.2473 15.1219 13.1318 16.8678 12.8043C17.6024 12.667 18.3321 12.4888 19.0355 12.2286C19.6281 12.0095 20.2036 11.7493 20.7071 11.3616C21.1021 11.0556 21.4754 10.6439 21.5717 10.1357C21.615 9.90932 21.6126 9.69492 21.6126 9.46853V7.08908V4.96247V4.84448C21.6126 4.46631 21.2802 4.10504 20.89 4.12191C20.4937 4.13595 20.1638 4.43458 20.1638 4.83917L20.1634 4.83907Z" fill="#666C80"/>
    <path d="M20.1634 9.78609V11.525V14.208C20.1634 14.4175 20.1828 14.6391 20.1561 14.8486C20.1657 14.7835 20.173 14.721 20.1826 14.6559C20.1706 14.7402 20.1488 14.8197 20.115 14.8968C20.139 14.839 20.1632 14.7813 20.1872 14.7235C20.1608 14.7837 20.1319 14.8415 20.0957 14.8968C20.0788 14.9232 20.0595 14.9475 20.0428 14.9739C19.9875 15.0559 20.1752 14.8126 20.1079 14.8897C20.0983 14.9017 20.0861 14.9161 20.0766 14.9281C20.0284 14.9835 19.9779 15.0366 19.9248 15.0848C19.8959 15.1112 19.8646 15.1401 19.8333 15.1643C19.8188 15.1763 19.8044 15.1883 19.7899 15.2005C19.708 15.2703 19.9513 15.0801 19.8622 15.1452C19.5395 15.3787 19.1903 15.5618 18.8217 15.716C18.8794 15.692 18.9372 15.6678 18.995 15.6438C17.8654 16.1159 16.6444 16.359 15.4377 16.5228C15.5028 16.5132 15.5652 16.5059 15.6303 16.4963C13.8505 16.7323 12.0392 16.7734 10.2476 16.6432C9.76348 16.607 9.28176 16.559 8.80005 16.4963C8.86514 16.5059 8.92759 16.5132 8.99269 16.5228C7.78596 16.359 6.56257 16.1157 5.43537 15.6438C5.49314 15.6678 5.55092 15.692 5.60868 15.716C5.24252 15.5594 4.89346 15.3765 4.56819 15.1452C4.48621 15.0874 4.71038 15.2583 4.65017 15.2078C4.63572 15.1958 4.62128 15.1838 4.60684 15.1716C4.57551 15.1452 4.54418 15.1187 4.5153 15.0921C4.46241 15.0414 4.40931 14.991 4.3611 14.9355C4.3491 14.921 4.33466 14.9041 4.32265 14.8897C4.26244 14.8199 4.43576 15.0463 4.39487 14.9837C4.37555 14.9548 4.35398 14.9283 4.3371 14.8994C4.30333 14.8441 4.272 14.7863 4.24556 14.7261C4.26956 14.7839 4.29377 14.8417 4.31777 14.8994C4.28644 14.8223 4.26244 14.7428 4.25023 14.6586C4.25979 14.7237 4.26712 14.7861 4.27668 14.8512C4.25491 14.6779 4.26935 14.4973 4.26935 14.3237V13.1581V10.4294V9.79123H2.82422C2.83378 10.904 3.91049 11.6048 4.82085 11.9974C6.26598 12.6211 7.82668 12.9006 9.38247 13.0692C11.0611 13.2499 12.764 13.2667 14.4476 13.127C15.9962 12.9994 17.5834 12.7706 19.0476 12.2262C19.592 12.0238 20.1435 11.7878 20.6108 11.4363C21.0298 11.1208 21.4249 10.7235 21.5549 10.196C21.5862 10.0661 21.6055 9.92875 21.6078 9.79387C21.6102 9.41571 21.2729 9.05443 20.8852 9.07131C20.4912 9.08046 20.1683 9.38153 20.1637 9.78617C20.1637 9.82461 20.1612 9.86327 20.1564 9.89927C20.1659 9.83418 20.1732 9.77173 20.1828 9.70663C20.1708 9.79085 20.149 9.87039 20.1153 9.94749C20.1393 9.88971 20.1635 9.83194 20.1875 9.77417C20.161 9.83438 20.1321 9.89215 20.0959 9.94749C20.0791 9.97393 20.0597 9.99814 20.043 10.0246C19.9877 10.1066 20.1755 9.86327 20.1081 9.94037C20.0986 9.95237 20.0864 9.96681 20.0768 9.97881C20.0286 10.0341 19.9782 10.0872 19.9251 10.1355C19.8962 10.1619 19.8648 10.1908 19.8335 10.215C19.8191 10.227 19.8046 10.239 19.7902 10.2512C19.7082 10.321 19.9515 10.1308 19.8624 10.1959C19.5398 10.4294 19.1905 10.6125 18.8219 10.7667C18.8797 10.7427 18.9375 10.7185 18.9952 10.6945C17.8656 11.1666 16.6446 11.4097 15.4379 11.5735C15.503 11.5639 15.5654 11.5566 15.6305 11.547C13.8508 11.783 12.0395 11.8241 10.2479 11.6939C9.76372 11.6577 9.282 11.6097 8.80029 11.547C8.86539 11.5566 8.92784 11.5639 8.99293 11.5735C7.78621 11.4097 6.56282 11.1664 5.43561 10.6945C5.49339 10.7185 5.55116 10.7427 5.60893 10.7667C5.24276 10.6125 4.8937 10.4272 4.56843 10.1959C4.48645 10.1381 4.71063 10.309 4.65041 10.2585C4.63597 10.2465 4.62152 10.2345 4.60708 10.2223C4.57575 10.1959 4.54443 10.1694 4.51554 10.1428C4.46265 10.0921 4.40955 10.0417 4.36135 9.98613C4.34934 9.97169 4.3349 9.95481 4.3229 9.94036C4.26269 9.87059 4.436 10.097 4.39511 10.0343C4.37579 10.0055 4.35422 9.97902 4.33734 9.95013C4.30357 9.8948 4.27224 9.83702 4.2458 9.77681C4.2698 9.83459 4.29401 9.89236 4.31801 9.95013C4.28669 9.87303 4.26268 9.79349 4.25047 9.70927C4.26004 9.77437 4.26736 9.83682 4.27692 9.90192C4.27204 9.86347 4.2696 9.82482 4.2696 9.78881C4.26716 9.41064 3.93964 9.04937 3.54703 9.06624C3.15442 9.08313 2.82446 9.3842 2.82446 9.78881V11.3688V13.9845V14.6877C2.82446 15.049 2.92801 15.4103 3.13997 15.7041C3.47726 16.1689 3.9443 16.5108 4.45492 16.7686C5.08104 17.0865 5.75543 17.3176 6.43467 17.496C8.0989 17.9344 9.84509 18.1102 11.5622 18.1511C13.3349 18.192 15.1219 18.0764 16.8678 17.7489C17.6024 17.6116 18.3321 17.4334 19.0355 17.1732C19.6281 16.9541 20.2036 16.6939 20.7071 16.3062C21.1021 16.0002 21.4754 15.5885 21.5717 15.0804C21.615 14.8539 21.6126 14.6395 21.6126 14.4132V12.0337V9.90709V9.78911C21.6126 9.41094 21.2802 9.04967 20.89 9.06654C20.4937 9.08058 20.1638 9.38165 20.1638 9.78624L20.1634 9.78609Z" fill="#666C80"/>
    <path d="M20.1636 14.7332V16.4841V19.1624C20.1636 19.3695 20.183 19.5864 20.1563 19.7934C20.1659 19.7283 20.1732 19.6659 20.1827 19.6008C20.1707 19.6828 20.149 19.7621 20.1177 19.8392C20.1417 19.7814 20.1659 19.7237 20.1899 19.6659C20.1659 19.7261 20.1345 19.7814 20.1008 19.837C20.0814 19.8659 20.0623 19.8947 20.0406 19.9236C19.9877 19.9983 20.1754 19.7574 20.1128 19.8296C20.1008 19.8416 20.091 19.8561 20.079 19.8681C20.0308 19.9234 19.9803 19.9741 19.9272 20.0247C19.8984 20.0512 19.8695 20.0754 19.8406 20.1018C19.8261 20.1138 19.8093 20.1258 19.7948 20.1403C19.6913 20.2245 19.9248 20.0439 19.8695 20.0825C19.5468 20.3185 19.1951 20.5016 18.829 20.6558C18.8867 20.6318 18.9445 20.6076 19.0023 20.5835C17.8824 21.0533 16.6686 21.2964 15.469 21.4603C15.5341 21.4508 15.5965 21.4434 15.6616 21.4339C13.8674 21.6747 12.0416 21.7156 10.2378 21.5856C9.74898 21.5494 9.25996 21.499 8.77356 21.4339C8.83865 21.4434 8.9011 21.4508 8.9662 21.4603C7.76682 21.2966 6.55296 21.0533 5.43289 20.5835C5.49066 20.6076 5.54843 20.6318 5.6062 20.6558C5.24004 20.4991 4.88853 20.3162 4.56571 20.0825C4.50305 20.0367 4.73902 20.2198 4.64769 20.1452C4.63324 20.1332 4.61636 20.1211 4.60191 20.1067C4.57059 20.0803 4.53926 20.0514 4.50793 20.0247C4.45504 19.9741 4.40439 19.9236 4.35617 19.8681C4.34417 19.8561 4.33441 19.8416 4.3224 19.8296C4.25975 19.7574 4.44771 20.0007 4.39462 19.9236C4.37529 19.8972 4.35617 19.8707 4.33929 19.8441C4.30308 19.7863 4.27175 19.7285 4.2453 19.6659C4.26931 19.7237 4.29352 19.7814 4.31752 19.8392C4.28619 19.7621 4.26463 19.6826 4.25242 19.6008C4.26198 19.6659 4.26931 19.7283 4.27887 19.7934C4.2571 19.6248 4.27155 19.449 4.27155 19.278V18.1099V15.3787V14.7332H2.82641C2.83597 15.8459 3.91268 16.5467 4.82304 16.9393C6.26818 17.5631 7.82887 17.8426 9.38467 18.0112C11.0633 18.1918 12.7662 18.2087 14.4498 18.069C15.9984 17.9414 17.5856 17.7126 19.0498 17.1682C19.5942 16.9658 20.1457 16.7298 20.613 16.3783C21.032 16.0628 21.4271 15.6655 21.5571 15.138C21.5884 15.008 21.6077 14.8707 21.61 14.7358C21.6124 14.3577 21.2751 13.9964 20.8874 14.0133C20.4913 14.0275 20.1685 14.3286 20.1638 14.7332C20.1638 14.7716 20.1614 14.8103 20.1565 14.8463C20.166 14.7812 20.1734 14.7187 20.1829 14.6537C20.1709 14.7379 20.1491 14.8174 20.1154 14.8945C20.1394 14.8367 20.1636 14.779 20.1876 14.7212C20.1611 14.7814 20.1323 14.8392 20.0961 14.8945C20.0792 14.921 20.0598 14.9452 20.0432 14.9716C19.9878 15.0536 20.1756 14.8103 20.1083 14.8874C20.0987 14.8994 20.0865 14.9138 20.0769 14.9258C20.0287 14.9812 19.9783 15.0343 19.9252 15.0825C19.8963 15.1089 19.865 15.1378 19.8336 15.162C19.8192 15.174 19.8047 15.186 19.7903 15.1982C19.7083 15.268 19.9516 15.0778 19.8625 15.1429C19.5399 15.3764 19.1906 15.5595 18.822 15.7137C18.8798 15.6897 18.9376 15.6655 18.9953 15.6415C17.8657 16.1136 16.6447 16.3567 15.438 16.5205C15.5031 16.5109 15.5656 16.5036 15.6307 16.494C13.8509 16.73 12.0396 16.7711 10.248 16.6409C9.76383 16.6047 9.28211 16.5567 8.8004 16.494C8.8655 16.5036 8.92795 16.5109 8.99304 16.5205C7.78632 16.3567 6.56293 16.1134 5.43572 15.6415C5.49349 15.6655 5.55127 15.6897 5.60904 15.7137C5.24287 15.5571 4.89381 15.3742 4.56854 15.1429C4.48656 15.0851 4.71074 15.256 4.65052 15.2055C4.63608 15.1935 4.62163 15.1815 4.60719 15.1693C4.57586 15.1429 4.54454 15.1164 4.51565 15.0898C4.46276 15.0391 4.40966 14.9887 4.36146 14.9332C4.34945 14.9187 4.33501 14.9018 4.32301 14.8874C4.2628 14.8176 4.43611 15.044 4.39522 14.9814C4.3759 14.9525 4.35433 14.926 4.33745 14.8971C4.30368 14.8418 4.27235 14.784 4.24591 14.7238C4.26991 14.7816 4.29412 14.8394 4.31812 14.8971C4.2868 14.82 4.26279 14.7405 4.25058 14.6563C4.26014 14.7214 4.26747 14.7838 4.27703 14.8489C4.27215 14.8105 4.26971 14.7718 4.26971 14.7358C4.26727 14.3577 3.93975 13.9964 3.54714 14.0133C3.15453 14.0301 2.82457 14.3312 2.82457 14.7358V16.4627V19.1337C2.82457 19.3168 2.82213 19.4998 2.82457 19.6805C2.83189 20.1742 3.05811 20.6077 3.39294 20.9618C3.7349 21.3231 4.18284 21.5929 4.63096 21.8024C5.23797 22.0866 5.87612 22.301 6.52407 22.4696C8.15454 22.8862 9.85496 23.0598 11.5361 23.1006C13.3183 23.144 15.1127 23.0284 16.8661 22.6985C17.5478 22.5709 18.2222 22.407 18.8772 22.1807C19.4215 21.9905 19.973 21.7666 20.4548 21.4438C20.8449 21.1811 21.24 20.8465 21.4375 20.4081C21.5435 20.1697 21.6086 19.9482 21.6108 19.6831V19.5169V17.1614V14.8662V14.7362C21.6108 14.358 21.2784 13.9968 20.8882 14.0136C20.494 14.0275 20.1641 14.3286 20.1641 14.7331L20.1636 14.7332Z" fill="#666C80"/>
</svg>
